<?xml version="1.0" encoding="utf-8"?>
<!-- Generator: Adobe Illustrator 23.0.1, SVG Export Plug-In . SVG Version: 6.00 Build 0)  -->
<svg version="1.1" id="Layer_1" xmlns="http://www.w3.org/2000/svg" xmlns:xlink="http://www.w3.org/1999/xlink" x="0px" y="0px"
	 viewBox="0 0 300 300" style="enable-background:new 0 0 300 300;" xml:space="preserve">
<style type="text/css">
	.st0{fill-rule:evenodd;clip-rule:evenodd;fill:#FFF500;}
	.st1{fill-rule:evenodd;clip-rule:evenodd;fill:#E6427A;}
	.st2{fill-rule:evenodd;clip-rule:evenodd;fill:#0A0A0D;}
</style>
<g>
	<g>
		<g>
			<path class="st0" d="M131.42,170.93c0,0,0,0.28,0,0.29l-0.24,9.65c0,0.23,0,0.46,0.03,0.55c0.09,0.02,0.32,0.02,0.55,0.02
				l16.5,0.02c0.01,0,0.02,0,0.04,0c0.22,0.02,0.43,0.04,0.54,0.03c0.01-0.09,0.01-0.24,0.01-0.38l0-0.14l0.21-9.65
				c0-0.15,0-0.46-0.02-0.6c-0.05,0-0.1,0-0.15,0.01l-0.4,0.01l-16.45-0.01c-0.01,0-0.22-0.01-0.22-0.01
				c-0.14-0.01-0.29-0.01-0.38-0.01C131.42,170.78,131.42,170.85,131.42,170.93 M193.75,111.9c-0.27,0.14-0.58-0.04-0.68-0.1
				c0,0,0,0,0,0c-1.86-1.15-4.37-1.07-6.09-0.91c-0.15,0.01-0.3-0.08-0.35-0.22c-0.06-0.14-0.01-0.31,0.11-0.4
				c0.9-0.68,2.09-1.91,2.55-3.01c0.02-0.04,0.04-0.08,0.08-0.11l0.64-0.63c0.06-0.07,0.15-0.1,0.24-0.1c0.13,0,0.26-0.02,0.41-0.08
				c0.01,0,0.02-0.01,0.03-0.01c0.72-0.19,1.17-0.41,1.8-0.72l0.38-0.19c0.37-0.18,0.89-0.56,1.34-0.89
				c0.46-0.35,0.76-0.56,0.96-0.64c0.28-0.1,0.45,0.05,0.49,0.1c0.24,0.26,0.05,0.63-0.31,1.35c-0.14,0.27-0.28,0.56-0.36,0.76
				c-0.75,2.22-1.05,3.83-0.99,5.36c0,0.01,0,0.02,0,0.03C193.98,111.68,193.89,111.83,193.75,111.9z M154.38,103.21
				c0.09,0.02,0.16,0.06,0.21,0.14c0.01,0.01,0.01,0.02,0.02,0.03c0.04,0.09,0.05,0.19,0.01,0.28l-0.18,0.4l-0.02,0.05
				c-0.08,0.15-0.26,0.24-0.43,0.18c-0.28-0.1-0.55-0.38-0.81-0.29l-0.5,0.16c0.1,0.01,0.19,0.07,0.25,0.15
				c0.03,0.04,0.05,0.09,0.06,0.15c0.02,0.16-0.07,0.31-0.22,0.37l-0.75,0.28c-0.05,0.02-0.1,0.03-0.15,0.02
				c-0.65-0.05-1.37-0.16-1.83-0.53c-0.24-0.19-0.41-0.42-0.57-0.62c-0.01-0.02-0.03-0.03-0.04-0.05c0.04,0.34,0.15,0.67,0.28,1.04
				l0.13,0.36c0,0,0.07,0.2,0.07,0.2c0.09,0.29,0.2,0.61,0.34,0.84c0,0.01,0.01,0.01,0.01,0.02c0.02,0.04,0.04,0.07,0.07,0.11
				c0.12,0.17,0.29,0.33,0.49,0.52c0.23,0.21,0.49,0.46,0.7,0.77c0.01,0.02,0.02,0.03,0.03,0.05c0.03,0.04,0.04,0.07,0.03,0.14
				l-0.06,0.29l-0.01,0.04v-0.06c0,0.1-0.04,0.23-0.11,0.29c-0.07,0.06-0.17,0.13-0.26,0.11l-0.11-0.01l-0.18-0.02l-0.02,0
				c-0.39-0.04-1.1,0.06-1.48,0.11l-0.17,0.02c-1.17,0.21-2.21,0.36-3.47,0.44c-0.01,0-0.64-0.01-0.64-0.01
				c-0.4-0.01-0.78-0.02-1.16,0.03c-0.83,0.15-1.56,1.61-1.58,2.3c-0.01,0.82,0.39,1.78,1,2.37c0.54,0.51,1.26,0.72,2.01,0.94
				c0.79,0.23,1.6,0.47,2.29,1.07c0.12,0.11,0.15,0.28,0.08,0.42c-0.11,0.22-0.28,0.31-0.39,0.37l-0.07,0.04
				c-0.01,0.01-0.01,0.04-0.02,0.05c-0.02,0.03,0.03,0.12,0.06,0.2c0.05,0.11,0.11,0.24,0.11,0.39c0-0.01,0-0.02,0-0.03
				c0.05,0.48-0.02,1.62-0.26,2.22c-0.14,0.33-0.32,0.62-0.5,0.9c-0.14,0.22-0.27,0.42-0.36,0.61c0,0.01-0.68,1.31-0.68,1.31
				l-0.17,0.33c-1.55,3.15-1.66,5.86-1.65,8.81c-0.03,1.83-0.02,3.78,0.3,5.71c0.25,1.9,0.55,3.74,1.48,5.53
				c0.05,0.11,0.05,0.23-0.01,0.33l-0.6,1c-1.31,2.17-2.67,4.42-3.56,6.65c-0.74,1.94-1,3.8-1.24,5.6c0,0.01-0.09,0.57-0.09,0.57
				c-0.07,0.43-0.15,0.87-0.16,1.2c0.03,0.29,0.18,0.76,0.44,1.15c0.2,0.3,0.48,0.55,0.82,0.66c0.26,0.06,0.54-0.03,0.85-0.13
				c0.22-0.07,0.47-0.16,0.74-0.19c0.13-0.02,0.26,0.04,0.33,0.15c0.02,0.03,0.04,0.08,0.05,0.12c0,0.03,0.01,0.04,0.01,0.05
				c0.09,0.02,0.38-0.09,0.52-0.14l0.24-0.09c0.01,0,0.01,0,0.02-0.01l0.48-0.13c0.96-0.25,1.78-0.47,2.54-0.84
				c1.46-0.76,3.13-1.87,5.27-3.51l0.02-0.02c0.08-0.08,0.19-0.18,0.36-0.16c0.05,0,0.09,0.02,0.14,0.04l0.07,0.04
				c0.05,0.03,0.09,0.06,0.12,0.11c0.04,0.06,0.06,0.12,0.06,0.19l0,0.16l-0.61,46.25c0,0.08,0.01,0.14,0.03,0.17
				c0,0,0.01,0.01,0.01,0.01c0.03,0.03,0.12,0.05,0.3,0.04c0.01,0,0.01,0,0.02,0c19.28,0.07,38.9,0,57.86-0.07
				c22.65-0.09,46.07-0.18,69.24-0.02c0.07-6.99,0.1-13.88,0.09-21.04l0.02-4.78l0.02-4.03l0-1.7c0-7.35,0-14.29,0.12-21.09
				c0-0.01,0-0.02-0.01-0.03c-6.14,0.09-13.07,0.08-19.77,0.08l-8.92,0.01c0,0-0.03,0-0.07,0c0,0.03,0,0.05,0,0.09
				c0,0-0.01,1.87-0.01,1.87c-0.02,2.63-0.04,5.61,0.01,8l0,0.11c0,0.14-0.09,0.26-0.21,0.31c-0.13,0.05-0.27,0.03-0.37-0.07
				c-3.78-3.54-7.43-7.62-10.96-11.57c-2.31-2.59-4.7-5.26-7.08-7.73c0,0,0.02,0.02,0.03,0.03c0,0-0.09-0.09-0.11-0.1
				c-0.24,6.97-0.15,14.22-0.06,21.24c0.06,4.47,0.11,9.1,0.08,13.56l-0.01,0.7c0,0.16-0.11,0.3-0.27,0.33
				c-0.15,0.04-0.31-0.04-0.38-0.18l-0.15-0.3c0-0.01-4.6-9.68-4.6-9.68c-3.86-8.1-7.49-15.76-11.35-23.94
				c0.01,0.02,0.02,0.03,0.03,0.05c-0.05-0.08-0.06-0.15-0.09-0.33l-0.06-0.32c0,0-0.05-0.12-0.05-0.12l-0.11-0.3c0,0,0-0.03,0-0.06
				c-0.71,1.58-5.44,12.14-5.44,12.14l-4.45,9.96l-0.04,0.08l-0.01,0.01c-0.09,0.13-0.25,0.15-0.39,0.11
				c-0.13-0.04-0.21-0.17-0.23-0.3c0-0.03,0-0.05,0-0.07l0-0.01l0.04-0.18l0.01-0.04l0.05-0.22c0.24-1.73-0.06-3.45-0.35-5.12
				l-0.03-0.16c0,0-0.12-0.51-0.12-0.51c-0.11-0.39-0.21-0.78-0.17-1.19c0.03-0.79,0.37-2.04,0.67-2.87
				c1.39-4.53,3.03-8.55,5.07-13.2c0.92-1.97,1.61-4.09,1.85-5.69c0.02-0.16,0.17-0.29,0.33-0.29c0.28-0.01,0.35-0.35,0.4-1.02
				l0.01-0.13c0-0.01,0-0.02,0-0.03c0.19-1.15,0.4-2.45,0.07-3.42c-0.25-0.81-1.01-1.79-1.99-2.57c-1.1-0.92-2.2-1.31-3.2-1.12
				c-0.98,0.18-1.85,0.91-2.51,2.09c-0.05,0.08-0.12,0.14-0.21,0.16c-0.09,0.02-0.18,0.01-0.26-0.03c-1.37-0.78-3.52-0.26-4.74,0.66
				l-0.19,0.16c-0.99,0.82-1.41,1.07-1.74,0.86c-0.04-0.02-0.08-0.06-0.12-0.12c-0.06-0.09-0.1-0.24-0.05-0.45
				c0.64-2.44,0.88-4.6,0.8-7.23c0-0.02,0-0.04,0-0.05c0.14-1.16,0.62-2.64,1.16-3.62c1.66-4.1,1.7-7.77,1.75-11.65l0-0.31
				c0.01-1.02,0.06-2.06,0.1-3.07c0.08-1.93,0.17-3.93,0.07-6.06c-0.01-0.11-0.07-0.24-0.17-0.38c-0.28-0.41-0.89-0.91-1.7-1.39
				c0,0-0.02-0.01-0.02-0.01c-0.18-0.11-1.11,0.17-2.15,0.75c-0.01,0-0.01,0.01-0.02,0.01c-0.55,0.26-0.99,0.55-1.37,0.81
				c-2.32,1.68-4.9,4.01-7.07,6.39c0,0-0.01,0.01-0.01,0.01c-0.36,0.36-0.73,0.75-0.91,1.21c-0.06,0.15-0.22,0.24-0.38,0.21
				c-0.13-0.03-0.26-0.03-0.37,0c-0.05,0.01-0.1,0.01-0.14,0c-0.76-0.14-1.93,0.65-2.45,1.65c-0.03,0.07-0.04,0.09-0.11,0.13
				l-0.17,0.08l-0.02,0.01c-0.07,0.02-0.15,0.03-0.22,0c-0.04-0.01-0.08-0.03-0.12-0.06l-0.41-0.11c-0.04-0.01-0.09,0.01-0.15,0.01
				c-0.32-0.02-0.91-0.28-1.6-0.76c-1.42-0.99-3.25-2.69-3.93-2.83c-2.77-0.54-4.2-0.95-5.49-0.07c0,0,0.01-0.22,0.01-0.35
				c-0.04-0.09-0.09-0.19-0.16-0.3c-0.25-0.36-0.69-0.79-1.26-1.22c0,0-0.79-0.56-0.79-0.56c-0.73-0.5-1.42-0.97-1.89-1.53
				c-0.63-0.71-0.82-1.52-1.01-2.32c-0.13-0.55-0.26-1.07-0.52-1.51c-0.33-0.52-1.14-1.37-1.96-1.54c-0.71-0.14-1.76,0.41-2.3,1.21
				c-0.01,0.01-0.01,0.02-0.02,0.02c-0.38,0.47-0.62,1.11-0.85,1.72l-0.08,0.23c-0.65,1.95-1.12,4.07-1.52,5.94
				c-0.04,0.16-0.21,0.29-0.38,0.28l-0.45-0.01c-0.21,0-0.42,0-0.64-0.02c0.01,0,0.01,0,0.02,0l-0.43-0.03
				c-0.98-0.05-2.2-0.12-3.04-0.65c0.02,0.01,0.04,0.02,0.07,0.03c-0.04-0.01-0.07-0.04-0.11-0.06c0.36,0.38,0.8,0.63,1.04,0.77
				c0.13,0.07,0.24,0.14,0.3,0.23c0.03,0.05,0.05,0.11,0.06,0.18c0,0.1-0.04,0.2-0.11,0.27c-0.07,0.07-0.17,0.1-0.27,0.1
				c-0.28-0.03-0.58,0.03-0.96,0.21c-0.07,0.03-0.15,0.04-0.22,0.02c-0.29-0.07-0.56-0.2-0.79-0.31L154.38,103.21z M24.74,147.68
				c0,0.09-0.04,0.18-0.1,0.25c-0.07,0.06-0.15,0.1-0.25,0.1l-1.62-0.01c-1.14-0.02-2.32-0.03-3.48,0.03
				c0.11,2.01,0.1,4.05,0.1,6.02l0,2.11l0.05,4.7l0.05,4.2c0.02,2.81,0.06,5.66,0.1,8.42c0.05,2.95,0.09,6.01,0.11,9.01l0.06,4.44
				l0.05,4.28l0.05,3.73c0.03,1.5,0.05,3.06,0.05,4.58c0,0,0,0.56,0,0.94c6.22,0,11.81,0.02,17.06,0.07
				c2.45,0.02,4.94,0.02,7.34,0.01c3.4,0,6.92-0.01,10.38,0.06c2.85,0.05,5.75,0.04,8.55,0.03c2.94-0.01,5.98-0.03,8.98,0.04
				c1.86,0.04,3.76,0.01,5.6-0.01l2.94-0.03l8.04,0.04l1.55-0.01l3.37-0.01c0.19,0,0.4-0.03,0.62-0.06
				c0.42-0.07,0.85-0.13,1.27,0.01l0.03,0.01c0.6,0.2,1.22,0.4,1.83,0.5l0.87,0.14c1.09,0.18,2.12,0.36,3.2,0.37
				c1.53,0.01,2.84-0.06,4.1-0.25c5.81-0.84,11.13-3.45,14.99-7.36c1.93-1.95,3.56-4.18,4.98-6.81c0.7-1.3,1.2-2.65,1.59-3.79
				l0.04-0.12c0.09-0.23,0.15-0.41,0.19-0.53c-0.01-0.01-12.08-7.06-12.08-7.06c-0.04-0.03-0.08-0.06-0.11-0.1
				c-0.04-0.06-0.06-0.13-0.06-0.2c0-0.12,0.07-0.24,0.18-0.3c0,0,12.16-6.77,12.26-6.82c0-0.15-0.17-0.5-0.24-0.66l-0.15-0.34
				l-0.38-1.05l-0.31-0.86c-0.52-1.46-1.29-2.95-2.35-4.51c-0.59-0.87-1.28-1.77-2.06-2.7c-1.87-2.22-4.11-4.12-6.5-5.49
				c-1.11-0.64-2.4-1.36-3.75-1.85c-1.46-0.54-2.88-0.93-4.07-1.25c-2.84-0.76-5.8-0.68-8.32-0.5c-3.05,0.22-5.93,1.29-8.1,2.2
				c-2.42,1.02-4.76,2.55-6.96,4.56c-1.06,0.97-2.08,2.06-3.04,3.24c-0.79,0.98-1.44,2.09-2.07,3.17l-0.41,0.7
				c-0.06,0.1-0.17,0.16-0.28,0.17c-0.12,0.01-0.23-0.05-0.3-0.15c-0.23-0.34-0.41-0.72-0.58-1.08c-0.12-0.25-0.23-0.49-0.36-0.71
				l-1.06-1.9l-0.95-1.77l-1.08-2.01l-1.44-2.66c-0.85-1.59-1.73-3.23-2.68-4.8l-0.01-0.02l-0.01-0.02c-0.06-0.11-0.07-0.24,0-0.35
				c0.06-0.11,0.18-0.17,0.31-0.17c2.62,0.09,5.29,0.07,7.87,0.05c2.92-0.02,5.94-0.05,8.92,0.09c0.93,0.04,1.89,0.03,2.81,0.01
				l1.19-0.02l2.42,0.02l2.05,0.03l1.64-0.01l2.5,0c1.2,0.02,2.31-0.34,3.62-0.87c2.35-0.96,4.38-3.63,4.62-6.07
				c0.22-2.2-0.27-4.22-1.37-5.85c-0.39-0.57-0.85-1.09-1.39-1.56c-1.27-1.11-2.99-1.8-4.84-1.96c-1.1-0.09-1.94-0.03-2.63,0.19
				c-0.78,0.25-1.47,0.55-2.33,0.95c-0.11,0.05-0.23,0.04-0.33-0.02c-0.04-0.03-0.07-0.06-0.1-0.1c-0.04-0.05-0.06-0.12-0.06-0.19
				c-0.05-4.37-0.06-8.82-0.06-13.12l-0.01-4.16l0-0.67c0.02-4.11-0.01-6.55-0.09-7.28c-1.36,0-2.74-0.02-4.08-0.05
				c-1.4-0.03-2.84-0.06-4.26-0.06c-2.77,0.02-5.59-0.07-8.32-0.14c-2.85-0.08-5.8-0.17-8.7-0.14l-0.97-0.03
				c-0.62-0.04-1.21-0.07-1.79,0.05l-1.26,0.32c-0.2,0.04-0.41,0.15-0.63,0.26c-0.19,0.1-0.38,0.19-0.59,0.26
				c-0.11,0.03-0.22,0.02-0.31-0.05c-0.03-0.02-0.06-0.05-0.08-0.08c-0.04-0.06-0.06-0.13-0.06-0.2c0.06-3.52-0.01-7.08-0.1-10.47
				c-3.06,3.45-6.22,6.89-9.28,10.21l-1.66,1.8c-0.58,0.62-1.18,1.24-1.76,1.84c-0.68,0.7-1.39,1.42-2.05,2.16l-0.96,1.01
				l-0.97,1.02c-0.32,0.36-0.65,0.7-0.97,1.01l-0.25,0.22c-0.15,0.13-0.51,0.44-0.55,0.56l0.01-0.02c-0.02,0.13-0.11,0.25-0.24,0.29
				c-0.12,0.04-0.26,0.02-0.35-0.07c-2.18-2.21-4.26-4.45-5.82-6.15c-0.8-0.88-1.67-1.74-2.5-2.57c-1.15-1.15-2.34-2.34-3.41-3.59
				c-0.74-0.86-1.55-1.69-2.33-2.5c0,0-1.41-1.47-1.42-1.48c-0.55-0.5-1.07-1.05-1.56-1.58l-1.02-1.06
				c-0.55-0.55-1.1-1.13-1.62-1.69c0,0-0.28-0.29-0.55-0.57C24.53,96.81,24.74,147.68,24.74,147.68z"/>
			<path class="st1" d="M184.89,122.45l-0.3,0.02l-0.28-0.02l-0.25-0.01l-0.19,0.02l-0.12,0.06l-0.05,0.05l-0.05,0.1l-0.05,0.12
				l-0.05,0.14l-0.06,0.16l-0.07,0.17l-0.1,0.17l-0.2,0.25l-0.25-0.03l-0.14-0.05l-0.12-0.06l-0.11-0.06l-0.09-0.05l-0.07-0.03
				l-0.02,0.03l-0.05,0.15l-0.04,0.14l-0.03,0.15l-0.04,0.15l-0.05,0.16l-0.07,0.17l-0.15,0.26l-0.28,0.05l-0.19-0.01l-0.17-0.04
				l-0.15-0.04l-0.13-0.04l-0.11-0.02l-0.09,0l-0.1,0.03l-0.18,0.09l-0.16,0.14l-0.16,0.19L180,125.2l-0.16,0.24l-0.18,0.24
				l-0.22,0.22l-0.43,0.31l-0.21-0.34l-0.07-0.16l-0.06-0.18l-0.05-0.19l-0.04-0.2l-0.03-0.2l-0.02-0.21l-0.01-0.21l-0.01-0.25
				l0-0.28l0.02-0.3l0.05-0.31l0.08-0.31l0.13-0.31l0.19-0.29l0.27-0.27l0.3-0.14l0.34-0.03l0.34,0.02l0.35,0.06l0.33,0.06l0.3,0.04
				l0.24,0l0.17-0.05l0.06-0.04l0.09-0.08l0.1-0.11l0.1-0.13l0.1-0.14l0.09-0.15l0.07-0.15l0.06-0.15l0.07-0.15l0.05-0.14l0.05-0.15
				l0.06-0.15l0.07-0.15l0.1-0.14l0.14-0.13l0.2-0.1l0.32-0.02l0.33,0.12l0.32,0.19l0.31,0.23l0.31,0.25l0.29,0.24l0.26,0.21
				l0.36,0.25l-0.14,0.51l-0.24,0.26 M160.22,138.32c0.42,0.28,2.04,1.32,2.32,0.68c0.13-0.35-0.63-0.41-0.99-0.61
				c-0.84-0.35-1.54-1.12-1.75-1.75c-0.56-1.75,0.21-4.06,1.67-6.02c1.11-1.45,2.7-2.08,3.94-2.85c0,0,0,0,0,0.06
				c0.49-0.06,1.11-0.14,1.73-0.15c0.7,0.08,1.59,0,2.22,0.61c0.77,0.82,0.79,2-0.04,3.18c-0.75,1.11-2.34,2.24-2.47,3.63
				c-0.07,0.64,0.01,1.27-0.06,1.9c-0.06,0.77-0.13,1.61-0.82,2.6C164.43,141.05,161.69,140.42,160.22,138.32z M192.75,112.27
				c0.49,0.26,1.27,0.92,1.09,1.59c-0.23,1.07-1.78,1.55-2.46,1.62c-0.55,0.07-1.09,0-1.58,0.01c-0.48-0.07-1.09-0.13-1.56,0.08
				c-0.54,0.27-1,0.81-1.54,1.15c-0.93,0.68-2.01,1.21-3.24,1.3c-0.55,0.07-1.51,0.01-1.93-0.45c-0.28-0.34-0.03-1.01,0.16-1.41
				c0.57-1.61,1.83-3.08,3.11-3.63c0.54-0.27,1.72-0.75,2.4-0.82c1.22-0.21,1.76-0.26,3.12-0.2
				C191.08,111.58,192.06,111.87,192.75,112.27z M189.99,106.74l-0.5,0.67c-0.36,0.24-0.78,1.02-1.19,1.38
				c-0.85,0.72-1.44,1.31-2.38,1.65c-0.6,0.21-1.45,0.41-2.14-0.05c0.26-0.46,0.8-0.75,1.25-1.22c2.27-2.95-0.38,0.07-1.19,0.15
				c-0.33,0.2-1.61,0.34-1.3-0.52c0.19-0.33,0.74-0.87,1.07-1.33c0.25-0.46,0.45-0.85,0.64-1.17c0.07-0.11,0.17-0.37,0.3-0.45
				c0.72-0.31,1.49-0.75,2.29-1.39c0.84-0.79,1.31-0.11,1.88,0.61C189.34,105.84,190.02,106.66,189.99,106.74z M238.36,157
				c-0.08,2.46-0.11,16.3-0.14,26.41c-0.01,5.67-0.03,10.15-0.04,11.4c0,0.01,0,0.01,0,0.02c0.01,0.25,0.17,0.51,0.59,0.5
				c-0.01,0,13.04,0,13.04,0l20.62-0.01c0.18,0,0.34-0.15,0.34-0.33c0.03-0.91,0.13-10.6,0.22-19.98c0.09-8.76,0.17-17.83,0.2-18.72
				c0.01-0.19-0.14-0.35-0.33-0.36c-1.32-0.05-9.41,0.01-13.3,0.04l-1.98,0.02c-0.18,0-0.33,0.15-0.34,0.33
				c-0.06,1.61-0.02,17.49-0.02,19.63c-0.01-0.01-0.02-0.01-0.02-0.02c0,0-0.01-0.01-0.02-0.01c-0.1-0.09-1.54-1.62-3.36-3.55
				c-4.82-5.09-12.88-13.62-14.89-15.61c-0.1-0.1-0.24-0.12-0.37-0.07C238.45,156.74,238.36,156.87,238.36,157z M214.62,157.22
				C214.62,157.21,214.62,157.21,214.62,157.22c-1.64,3.75-15.24,35.4-16.2,37.67c-0.04,0.11-0.03,0.23,0.03,0.32
				c0.06,0.1,0.17,0.15,0.29,0.15c1.31-0.01,9.38,0,17.19,0c7.81,0,15.88,0,17.2,0c0.18,0,0.32-0.06,0.41-0.19
				c0.06-0.09,0.11-0.25,0.01-0.48c-0.01-0.01-3.39-6.99-3.39-6.99c-7.06-14.54-12.63-26.01-14.72-30.53
				c-0.12-0.26-0.32-0.29-0.4-0.28C214.86,156.89,214.7,157.01,214.62,157.22z M159.46,159.22c0-0.01,0-0.01,0-0.02
				c-0.06,3.92-0.42,31.97-0.46,35.6c-0.01,0.2,0.1,0.38,0.32,0.51c0.01,0.01,0.03,0,0.09,0.03c0.05,0.03,0.1,0.05,0.14,0.05
				c1.91-0.05,31.46-0.07,33.15-0.06c0.19,0,0.34-0.15,0.35-0.34c0.14-6.78,0.11-13.41,0.08-19.81c0,0-0.02-6.46-0.02-6.54
				c0.02-0.09,0.56-2.35,0.56-2.35c0.29-1.26,0.57-2.45,0.75-2.84l0.15-0.3c0.15-0.31,0.34-0.71,0.53-0.96
				c0.18,0.28,0.18,0.65,0.01,1.18c0,0.01-0.3,1.09-0.3,1.09c-0.51,1.8-1.03,3.65-0.52,5.23c0.19,0.58,0.55,1.22,0.99,1.87
				c0.96,1.42,2.32,2.86,3.18,3.76c0.01,0.01,0.43,0.48,0.43,0.48c0.42,0.49,0.94,1.09,1.53,1.38c0.01,0,0.01,0,0.02,0.01
				c1.07,0.45,2.44-0.2,2.94-1.38c0.29-0.61,0.27-1.74-0.07-3.53c-0.05-0.28,0.38-0.85,0.67-1.23c0.37-0.5,0.65-0.86,0.57-1.2
				c0,0.01-0.23-1.31-0.23-1.31l-0.19-1.04c-0.01-0.05-0.03-0.09-0.06-0.13c-0.04-0.06-0.09-0.1-0.15-0.13
				c-0.24-0.12-0.55,0.02-1.39,0.41l-0.53,0.24c-0.02,0.01-0.04,0.02-0.05,0.03c-0.66,0.43-1.06,0.64-1.76,0.79
				c-0.97,0-1.55-0.31-1.91-0.84c-0.46-0.67-0.56-1.71-0.61-2.94c0,0.01,0,0.02,0,0.03c0.01-0.28-0.02-0.56-0.06-0.8
				c-0.06-0.45-0.09-0.75,0.09-1.01c0.01-0.01,0.02-0.03,0.03-0.04c0.05-0.1,0.11-0.21,0.16-0.26c0.08-0.08,0.11-0.2,0.08-0.31
				l-0.13-0.59c-0.01-0.04-0.03-0.08-0.05-0.11c-0.04-0.06-0.11-0.11-0.19-0.14c-0.11-0.03-0.25-0.12-0.38-0.22
				c-0.02-0.02-0.04-0.03-0.06-0.04c-0.2-0.11-0.47-0.41-0.75-0.84c-0.14-0.21-0.29-0.44-0.43-0.7c-0.28-0.74-0.21-2.45,0.28-3.4
				c0,0,0.09-0.16,0.09-0.16c0.17-0.31,0.39-0.71,0.59-0.93c0.01-0.01,0.02-0.02,0.03-0.03c0.4-0.56,0.74-0.91,0.95-1.12
				c0.2-0.21,0.35-0.36,0.26-0.59c-0.01-0.02-0.02-0.05-0.04-0.07c-0.06-0.09-0.17-0.15-0.3-0.16c-0.43-0.04-1.65,0.65-2.59,1.24
				c-0.01,0.01-0.02,0.01-0.03,0.02c-1.23,0.93-2.16,2.13-2.99,3.19l-0.54,0.69c-4.35,4.92-9.21,10.67-14.85,17.56
				c-0.29,0.35-0.41,0.35-0.41,0.35c-0.01,0-0.05-0.02-0.12-0.12c-0.66-0.93-12.62-14-15.83-17.41c-0.1-0.11-0.4-0.44-0.73-0.3
				C159.61,158.72,159.44,158.86,159.46,159.22z M134.83,174.71C134.83,174.71,134.83,174.7,134.83,174.71l-0.07,2.41
				c0.01,0.68,0.43,0.79,0.68,0.8l9.46,0.12c0.63,0,0.65-0.46,0.65-0.66l0.11-2.76c0-0.03,0-0.06-0.01-0.09
				c-0.12-0.52-0.5-0.53-0.68-0.53l-0.04,0l-9.37,0.01C134.91,174.01,134.83,174.5,134.83,174.71z M163.3,146.91
				c0,0.01,0,0.01,0,0.02C163.3,146.91,163.3,146.91,163.3,146.91z M163.17,143.21c-0.02,0.04-0.03,0.08-0.03,0.13
				c-0.01,0.07-0.02,0.22,0.23,0.92c0.26,0.84,0.12,1.73-0.07,2.65c0,0.01-0.08,0.23-0.08,0.23c-0.09,0.22-0.21,0.5-0.13,0.8
				c0.01,0.04,0.03,0.08,0.05,0.11c0.02,0.03,0.04,0.06,0.07,0.08c0.41,0.32,0.87,0.41,1.24,0.48l0.04,0.01
				c0.1,0.02,0.23,0.08,0.36,0.14c0.19,0.09,0.4,0.19,0.64,0.21c-0.01,0.01-0.02,0.03-0.03,0.04c-0.26,0.34-0.19,0.62-0.05,0.81
				c0.08,0.11,0.17,0.2,0.24,0.26c0.06,0.06,0.13,0.11,0.16,0.17c0.01,0.01,0.01,0.02,0.02,0.03c0,0.01,0.01,0.03,0.02,0.04
				c0.1,0.16,0.16,0.45,0.23,0.74c0.05,0.2,0.1,0.41,0.16,0.6c0.13,0.6,0.16,1.21,0.19,1.85c0.02,0.46,0.05,0.94,0.11,1.41
				c0,0,0.04,0.41,0.04,0.41c0.04,0.68,0.1,1.28,0.35,1.64c0.03,0.05,0.07,0.09,0.1,0.12c0.52,0.51,1.26,0.6,1.86,0.67
				c0,0,0.46,0.07,0.51,0.07c0.29,0.12,0.61,0.3,0.9,0.52c0.23,0.17,0.46,0.36,0.71,0.58c0.54,0.47,1.1,0.95,1.71,1.11
				c0.18,0.05,0.37-0.06,0.42-0.25c0.11-0.43-0.06-1.01-0.21-1.53c-0.07-0.22-0.13-0.43-0.15-0.58c0-0.01-0.01-0.03-0.01-0.04
				c-0.07-0.24-0.11-0.58-0.16-0.91c-0.05-0.36-0.1-0.7-0.17-0.95c-0.17-0.67-0.59-1.47-1-2.23l-0.48-0.93
				c-0.49-1.14-0.67-1.99-0.84-2.82c-0.21-0.99-0.42-2.02-1.17-3.5c-0.01-0.02-0.01-0.02-0.02-0.04l-0.25-0.33
				c-0.24-0.3-0.61-0.76-0.82-1.15c-0.93-1.66-2.01-2.43-3.2-2.28C164.07,142.6,163.37,142.8,163.17,143.21z M159.16,143.52
				c-0.04,0.07-0.05,0.16-0.03,0.24c0.13,0.55,0.47,0.78,0.78,0.99c0.14,0.09,0.26,0.18,0.38,0.3c0.36,0.37,0.59,0.93,0.68,1.66
				c0,0,0,0.03,0,0.03l0.04,0.31c0.04,0.42,0.1,0.93,0.43,1.18c0.02,0.01,0.04,0.03,0.06,0.04c0.57,0.27,0.96-0.32,1.24-0.75
				c0.48-0.68,0.4-1.23,0.32-1.77l-0.05-0.39c0,0.02,0,0.02,0,0.04c0.01-0.55-0.18-1.17-0.33-1.65c0-0.01,0-0.01-0.01-0.02
				l-0.26-0.6l-0.28-0.65c-0.03-0.07-0.08-0.14-0.15-0.17c-0.37-0.2-0.81-0.24-1.26-0.1C160.09,142.38,159.5,142.87,159.16,143.52z
				 M83.25,175.58L83.25,175.58c0.05,10.57,8.68,19.13,19.24,19.08c6.46-0.02,12.42-3.29,15.95-8.74c0.05-0.08,0.06-0.17,0.04-0.26
				c-0.01-0.04-0.03-0.08-0.05-0.12c-0.03-0.04-0.06-0.08-0.11-0.1c0,0-16.87-10.05-16.92-10.08c0.02-0.01,0.04-0.02,0.07-0.04
				c0.01-0.01,0.03-0.01,0.04-0.02l16.86-9.66c0.08-0.05,0.14-0.12,0.16-0.21c0.02-0.09,0.01-0.19-0.04-0.27
				c-3.52-5.51-9.56-8.78-16.16-8.75C91.78,156.46,83.21,165.06,83.25,175.58z M162.92,94.72c-0.65,1.06-1.01,2.22-1.35,3.33
				c0,0-0.25,0.79-0.25,0.8c-0.27,0.63-0.53,1.34-0.74,2c0,0.01-0.03,0.1-0.03,0.1c-0.11,0.42-0.21,0.71-0.28,0.93
				c-0.08,0.14-0.53,0.04-0.76,0.18c-0.6,0.38-1.76,0.3-2.36,0.26c0,0-0.02,0-0.02,0l-0.06,0c-0.12,0-0.26-0.01-0.45,0.12
				c-0.1,0.07-0.16,0.18-0.15,0.3c0,0.02,0,0.03,0,0.03c-0.03,0.05-0.28,0.11-0.42,0.14c-0.2,0.04-0.42,0.1-0.62,0.21
				c-0.35,0.1-0.82,0.42-1.05,0.72c-0.01,0.01-0.02,0.03-0.03,0.05c-0.04,0.07-0.07,0.11-0.09,0.14l0,0
				c-0.12-0.08-0.29-0.1-0.41-0.02c-0.11,0.07-0.26,0.13-0.45,0.17c-0.04,0.01-0.07,0.02-0.1,0.04c-0.27,0.16-0.58,0.34-0.86,0.54
				c-0.07,0.05-0.12,0.13-0.14,0.22c-0.28,0.14-0.59,0.18-0.89,0.16c-0.38-0.03-0.84-0.07-1.05,0.24c-0.01,0.02-0.02,0.04-0.03,0.06
				c-0.17,0.42,0.46,1.61,0.59,1.74c0.02,0.02,0.04,0.04,0.07,0.06c0.15,0.09,0.35,0.21,0.47,0.33c0.01,0.01,0.03,0.03,0.04,0.04
				c0.11,0.08,0.15,0.19,0.12,0.34c-0.03,0.16-0.14,0.25-0.17,0.25c-0.09,0.01-0.19,0.05-0.25,0.11c-0.09,0.1-0.22,0.21-0.41,0.33
				c-0.27,0.17-0.94,0.41-1.25,0.49c-0.72,0.17-1.69,0.25-2.55,0.32l-0.37,0.03c0.01,0,0.02,0,0.03,0c-0.25,0-0.5,0.03-0.77,0.07
				c-0.27,0.04-0.56,0.07-0.85,0.08c-0.01,0-0.03,0-0.04,0l-0.38,0.02c-0.48,0.02-1.02,0.05-1.3,0.33c-0.32,0.31-0.42,0.68-0.5,1.02
				l-0.09,0.32c-0.03,0.1-0.02,0.23,0.05,0.32c0.16,0.22,0.26,0.45,0.36,0.69c0.18,0.41,0.36,0.83,0.84,1.17
				c0.68,0.53,1.6,0.84,2.49,1.15l0.36,0.12c0.47,0.18,0.88,0.35,1.19,0.5c0.2,0.08,0.4,0.14,0.59,0.2
				c0.26,0.07,0.56,0.16,0.67,0.27c0.12,0.12,0.24,0.45,0.33,0.71l0.19,0.51c0-0.01-0.01-0.04-0.01-0.04
				c0.35,1.05,0.54,1.74,0.78,2.64c0,0.01,0.01,0.02,0.01,0.02l0.03,0.1c0.15,0.45,0.38,1.13,0.89,1.38c0.01,0,0.02,0.01,0.02,0.01
				c0.99,0.39,2.19-0.99,2.69-1.77c0-0.01,0-0.01,0.01-0.02c0.28-0.49,0.47-1.08,0.67-1.71l0.19-0.56l0.58-1.71
				c0,0,0.85-2.51,0.86-2.53c0.25-0.56,0.41-0.97,0.53-1.27c0.29-0.75,0.34-0.84,1.03-1.21c0.33,0.09,0.71,0.03,1.05-0.04
				c0.04-0.01,0.08-0.03,0.12-0.05l0.1-0.07c0.18-0.12,0.4-0.27,0.6-0.37c0.03-0.02,0.06-0.04,0.09-0.06
				c0.08-0.07,0.19-0.15,0.31-0.22c0.15-0.09,0.3-0.19,0.42-0.31c0.01-0.01,0.02-0.02,0.03-0.04c0.59-0.75,0.71-1.27,0.78-1.59
				c0.01-0.06,0.03-0.13,0.04-0.17c0.04-0.01,0.15-0.03,0.51-0.02c0.67,0,0.99-0.5,1.25-0.89c0.29-0.44,0.41-0.56,0.64-0.51
				c0.08,0.02,0.16,0,0.23-0.03c0.36-0.2,0.59-0.46,0.8-0.7c0.18-0.2,0.33-0.37,0.53-0.47c0.3-0.14,0.8-0.27,1.38-0.36
				c0.01,0,0.03-0.01,0.04-0.01c0.42-0.12,0.92-0.19,1.37-0.19c0.01,0,0.01,0,0.02,0c0.36-0.02,0.74-0.01,1.11,0
				c0.72,0.03,1.46,0.06,2.09-0.19c0.38-0.16,1.37-0.57,1.27-1.45c-0.01-0.3-0.13-0.58-0.31-0.83c-0.21-0.32-0.5-0.58-0.71-0.76
				c-0.37-0.28-0.78-0.47-1.18-0.66c-0.41-0.19-0.83-0.39-1.19-0.67c-0.55-0.46-1.2-1.18-1.6-1.77c-0.03-0.04-0.05-0.08-0.08-0.12
				c-0.08-0.13-0.14-0.27-0.2-0.43c-0.07-0.18-0.14-0.36-0.26-0.54c-0.28-0.72-0.69-1.43-1.09-2.13c-0.01-0.01-0.1-0.17-0.1-0.17
				c-0.06-0.1-0.13-0.22-0.21-0.34c-0.2-0.3-0.48-0.6-0.9-0.7C164.31,93.23,163.36,93.79,162.92,94.72z M66.59,158.89
				c-0.82,1.75-5.4,11.66-9.43,20.4c-3.16,6.85-6.15,13.32-6.68,14.45c-0.05,0.1-0.04,0.23,0.02,0.33c0.06,0.1,0.17,0.16,0.29,0.16
				l8.04,0.01c9.83,0.02,24.7,0.05,26.7,0c0.12,0,0.23-0.07,0.29-0.17c0.06-0.1,0.06-0.23,0-0.34c-1.2-2.19-16.99-31.72-18.61-34.86
				c-0.06-0.12-0.18-0.19-0.31-0.19C66.77,158.69,66.65,158.77,66.59,158.89z M96.79,137.33C96.79,137.33,96.79,137.33,96.79,137.33
				c-0.6,0.84-0.83,1.86-0.66,2.88c0.18,1.02,0.75,1.91,1.62,2.51c0.83,0.6,1.85,0.83,2.87,0.66c1.02-0.18,1.91-0.75,2.5-1.62
				c1.22-1.69,0.8-4.11-0.94-5.37C100.48,135.16,98.06,135.58,96.79,137.33z M26.1,156.69c-0.06,0.06-0.1,0.15-0.1,0.24l0.14,36.85
				c0,0.19,0.15,0.34,0.34,0.34l14.85,0.09c0.09,0,0.18-0.03,0.25-0.1c0.06-0.06,0.1-0.15,0.1-0.25l-0.07-17.9
				c0-0.12,0-0.18,0.01-0.22c0.03,0,0.1-0.01,0.21-0.01c0.02,0,0.4,0.02,0.4,0.02c1.54,0.07,3.65,0.17,5.06-0.04
				c2.37-0.32,4.41-1.35,5.91-2.99c1.36-1.49,2.23-3.44,2.44-5.51c0.45-4.62-2.25-8.63-6.88-10.21c-0.01,0-0.02,0-0.02-0.01
				c-1.72-0.44-2.72-0.44-4.38-0.42l-0.76,0.01l-0.91-0.03c-0.39-0.02-0.79-0.04-1.22-0.03l-15.12,0.06
				C26.25,156.58,26.17,156.62,26.1,156.69z M63.42,116.59c-1.18,2.13-1.15,4.53,0.08,6.42c0.12,0.2,0.25,0.41,0.39,0.62
				c0.38,0.56,0.86,1.12,1.56,1.6c0.45,0.37,1.02,0.68,1.67,1.03c0.64,0.35,1.37,0.75,2.17,1.3c0.01,0,0.01,0.01,0.02,0.01
				c0.08,0.05,0.11,0.08,0.13,0.11c-0.03,0.02-0.08,0.04-0.17,0.04c-0.17,0-4.56-0.13-5.77-0.05c-0.19,0.01-0.33,0.17-0.32,0.36
				c0.04,0.76,0.07,3.8,0.1,6.75c0.03,3.14,0.06,6.39,0.11,7.17c0.01,0.17,0.15,0.31,0.32,0.32c2.77,0.16,6.85,0.13,10.14,0.1
				l2.24-0.02c1.98,0.07,3.5,0.06,4.47,0.05c1.38,0,2.2-0.03,2.43-0.1c2.31-0.56,4.05-1.96,4.89-3.93c0.84-1.96,0.69-4.24-0.39-6.1
				c-0.06-0.1-0.12-0.19-0.18-0.29c-1.3-1.92-3.99-3.44-5.46-4.27c0,0-0.69-0.4-0.72-0.42c-0.04-0.04-0.07-0.07-0.09-0.09
				c0.01,0,0.01,0,0.02,0l0.27,0.01c3.47,0.07,5.59,0.09,6.29,0.04c0.17-0.01,0.31-0.15,0.32-0.33c0.03-0.69,0.03-3.43,0.04-6.33
				c0-3.01,0.01-6.12,0.05-6.95c0.01-0.09-0.03-0.18-0.09-0.25c-0.06-0.07-0.15-0.1-0.25-0.11l-18.89-0.14
				C66.69,113.13,64.58,114.48,63.42,116.59z M30.29,110.18l0.04,7.06c0.05,9.28,0.14,23.31,0.09,24.6c0,0.09,0.03,0.18,0.1,0.25
				c0.07,0.07,0.16,0.1,0.25,0.1c0.91,0,7.29,0.02,13.46,0.05c6.47,0.03,13.16,0.05,14.03,0.05c0.19,0,0.34-0.16,0.34-0.35
				l0.01-9.55c0.01-8.08,0.02-19.14,0.01-21.62c0-0.14-0.08-0.26-0.21-0.32c-0.13-0.05-0.28-0.02-0.37,0.08
				c-2.53,2.54-10.12,10.76-10.2,10.84c0.01,0-0.49,0.51-0.49,0.51c-0.72,0.76-2.03,2.15-2.43,2.51c-0.07,0.04-0.1,0.06-0.12,0.06
				c-0.04-0.02-0.14-0.1-0.23-0.16c-0.38-0.4-10.83-11.38-13.68-14.35c-0.1-0.1-0.25-0.13-0.38-0.08
				C30.37,109.91,30.28,110.04,30.29,110.18z"/>
			<path class="st2" d="M267.02,205.72l0.35,0c0.07,0,0.14,0,0.14-0.07c0.07-0.07,0.07-0.07,0.07-0.14c0-0.07,0-0.14-0.07-0.21
				c-0.07,0-0.07,0-0.14,0l-0.36,0 M266.52,204.87l0.92,0c0.11-0.01,0.18,0,0.21,0c0.25,0.15,0.33,0.29,0.36,0.57
				c0,0.07,0,0.14,0,0.28c-0.07,0.07-0.14,0.14-0.21,0.14l0,0.07c0.07,0,0.21,0.21,0.22,0.28c0,0.07,0,0.07,0,0.14l0,0.07
				c0,0.07,0,0.14,0,0.14c0,0.07,0.07,0.07,0.07,0.14c0,0.07,0,0.07,0,0.07l-0.42,0c0,0,0,0-0.07-0.07l0-0.07l0-0.07
				c0-0.07,0-0.07,0-0.07c0-0.07,0-0.07,0-0.14c0-0.13-0.16-0.28-0.29-0.28l-0.28,0l0,0.71l-0.5,0L266.52,204.87z M268.29,204.87
				l1.42-0.01l0,0.43l-0.92,0l0,0.28l0.85,0l0,0.43l-0.85,0l0,0.35l0.92,0l0,0.43l-1.42,0.01L268.29,204.87z M270.36,206.14
				c0,0.14,0.07,0.21,0.14,0.21c0,0.07,0.14,0.07,0.21,0.07l0.07,0l0.21-0.14c0-0.07,0-0.14-0.07-0.14l-0.07-0.07
				c-0.19,0-0.37-0.14-0.57-0.14c-0.07-0.07-0.14-0.07-0.14-0.14c-0.07-0.07-0.07-0.07-0.14-0.14c0-0.07-0.07-0.14-0.07-0.21
				c0-0.14,0.07-0.21,0.07-0.29c0.07-0.07,0.14-0.14,0.21-0.22c0.07,0,0.14-0.07,0.21-0.07c0.07,0,0.14-0.07,0.28-0.07
				c0.07,0,0.14,0.07,0.21,0.07c0.07,0,0.21,0.07,0.21,0.07c0.07,0.07,0.14,0.14,0.21,0.21c0,0.07,0.07,0.21,0.07,0.28l-0.49,0
				l0-0.07l-0.14-0.14c-0.07,0-0.07,0-0.14,0l-0.07,0c-0.09,0-0.14,0.06-0.14,0.14c0,0.07,0,0.07,0.07,0.14l0.07,0
				c0.15,0.15,0.44,0.08,0.57,0.21c0.07,0,0.07,0.07,0.14,0.07c0.07,0.07,0.07,0.14,0.14,0.21c0,0,0,0.07,0,0.21
				c0,0.07,0,0.21-0.07,0.28c0,0.07-0.07,0.14-0.14,0.21c-0.07,0.07-0.14,0.07-0.21,0.07c-0.14,0.07-0.21,0.07-0.28,0.07
				c-0.14,0-0.21,0-0.36-0.07c-0.07,0-0.14-0.07-0.21-0.07c-0.18-0.14-0.21-0.33-0.22-0.57L270.36,206.14z M271.63,204.85l1.42,0
				l0,0.43l-0.92,0.01l0,0.28l0.85,0l0,0.43l-0.85,0l0,0.35l0.99,0l0,0.43l-1.49,0.01L271.63,204.85z M273.83,205.7l0-0.43l0.36,0
				c0.07,0,0.14,0,0.14,0c0.07,0.07,0.07,0.14,0.07,0.21c0,0.07,0,0.07,0,0.14c-0.07,0.07-0.14,0.07-0.21,0.07L273.83,205.7z
				 M273.33,204.85l0.01,1.92l0.5,0l-0.01-0.71l0.36,0c0.07,0,0.07,0,0.14,0.07c0,0,0,0.07,0.07,0.07c0,0.07,0,0.07,0,0.14
				c0.05,0.1,0.08,0.17,0.07,0.28l0,0.07c0,0.07,0,0.07,0,0.07l0.5,0c-0.07,0-0.07,0-0.07-0.07c0-0.07,0-0.07,0-0.14
				c0,0,0-0.07,0-0.14l0-0.07c-0.03-0.11-0.04-0.43-0.29-0.42l0-0.07c0.07,0,0.14-0.07,0.21-0.14c0-0.14,0.07-0.21,0.07-0.28
				c0-0.14,0-0.22-0.07-0.29c0-0.07-0.07-0.14-0.14-0.14c-0.07-0.07-0.14-0.07-0.21-0.14c-0.07,0-0.14,0-0.21,0L273.33,204.85z
				 M276.04,206.75l-0.5,0l-0.57-1.92l0.5,0l0.36,1.42l0.35-1.42l0.5,0L276.04,206.75z M276.74,204.83l1.42-0.01l0,0.43l-0.92,0
				l0,0.28l0.85,0l0,0.43l-0.85,0l0,0.35l0.99,0l0,0.43l-1.49,0.01L276.74,204.83z M278.95,206.32l0.21,0c0.07,0,0.14,0,0.21,0
				c0.07-0.07,0.14-0.07,0.14-0.14c0.07,0,0.07-0.07,0.07-0.14c0.07-0.07,0.07-0.14,0.07-0.29c0-0.14-0.07-0.29-0.14-0.36
				c-0.07-0.07-0.22-0.14-0.36-0.14l-0.21,0L278.95,206.32z M278.45,204.83l0.78,0c0.14,0,0.28,0,0.35,0.07
				c0.14,0,0.21,0.07,0.28,0.21c0.07,0.07,0.14,0.14,0.14,0.28c0.07,0.07,0.07,0.21,0.07,0.35c0,0.22,0,0.36-0.07,0.43
				c0,0.14-0.07,0.28-0.14,0.36c-0.07,0.07-0.14,0.14-0.28,0.14c-0.07,0.07-0.21,0.07-0.35,0.07l-0.78,0L278.45,204.83z"/>
			<path class="st2" d="M252.03,205.01l0.43,0l0.65,1.91l-0.43,0l-0.14-0.35l-0.57,0l-0.14,0.36l-0.43,0 M252.03,206.21l0.43,0
				l-0.22-0.71L252.03,206.21z M253.23,205l0.43,0l0.01,1.49l0.85,0l0,0.43l-1.28,0.01L253.23,205z M254.73,204.99l0.43,0l0.01,1.49
				l0.78,0l0,0.43l-1.21,0L254.73,204.99z M257.36,205.84l0.36,0c0.19,0.01,0.26-0.06,0.21-0.07c0-0.07,0-0.07,0-0.14
				c0-0.14,0-0.14-0.07-0.21c0,0-0.07,0-0.14,0l-0.35,0L257.36,205.84z M256.93,204.98l0.85,0c0.07,0,0.14,0,0.21,0
				c0.07,0.07,0.14,0.07,0.21,0.14c0.07,0,0.07,0.07,0.14,0.14c0,0.07,0.07,0.14,0.07,0.28c0,0.07-0.07,0.14-0.07,0.29
				c-0.07,0.07-0.14,0.14-0.21,0.14l0,0.07c0.07,0,0.07,0,0.07,0c0.07,0.07,0.07,0.07,0.14,0.14c0,0.07,0,0.07,0,0.14
				c0,0.07,0,0.07,0,0.14l0,0.07c0,0.07,0.07,0.14,0.07,0.14c0,0.07,0,0.07,0,0.14c0,0.07,0,0.07,0,0.07l-0.43,0c0,0,0,0,0-0.07
				l0-0.07l0-0.07c0-0.07,0-0.07-0.07-0.07c0-0.07,0-0.14,0-0.14c0-0.07,0-0.07,0-0.14c0-0.07-0.07-0.07-0.07-0.07
				c-0.07-0.07-0.07-0.07-0.14-0.07l-0.35,0l0,0.71l-0.42,0L256.93,204.98z M258.63,204.98l0.5,0l0.01,1.92l-0.5,0L258.63,204.98z
				 M260.99,206.89l-0.29,0l0-0.21c-0.07,0.07-0.07,0.07-0.14,0.14l-0.07,0.07c-0.07,0-0.14,0-0.14,0.07c-0.07,0-0.07,0-0.14,0
				c-0.14,0-0.22-0.07-0.36-0.07c-0.07-0.07-0.21-0.14-0.29-0.21c-0.07-0.14-0.14-0.22-0.14-0.36c-0.07-0.14-0.07-0.21-0.07-0.35
				c0-0.14,0-0.28,0.07-0.43c0-0.14,0.07-0.22,0.14-0.36c0.07-0.07,0.21-0.14,0.28-0.21c0.14,0,0.21-0.07,0.35-0.07
				c0.07,0,0.21,0,0.28,0.07c0.07,0,0.14,0.07,0.21,0.14c0.07,0,0.14,0.07,0.21,0.21c0,0.07,0.07,0.14,0.07,0.28l-0.43,0
				c0-0.07-0.07-0.14-0.14-0.21c-0.07,0-0.14-0.07-0.21-0.07c-0.07,0-0.14,0.07-0.21,0.07c0,0.07-0.07,0.07-0.07,0.14
				c-0.07,0.07-0.07,0.14-0.07,0.21c-0.07,0.07-0.07,0.14-0.07,0.21c0,0.07,0,0.14,0.07,0.21c0,0.07,0,0.07,0.07,0.14
				c0,0.07,0.07,0.14,0.07,0.14c0.07,0,0.14,0.07,0.21,0.07c0.14,0,0.21-0.07,0.28-0.07c0.07-0.07,0.07-0.14,0.07-0.21l-0.29,0
				l0-0.43l0.71,0L260.99,206.89z M261.26,204.97l0.43,0l0,0.71l0.64,0l0-0.71l0.43,0l0.01,1.92l-0.43,0l0-0.78l-0.64,0l0,0.78
				l-0.43,0L261.26,204.97z M264.39,205.38l-0.5,0l0.01,1.49l-0.43,0l-0.01-1.49l-0.5,0l0-0.43l1.42,0L264.39,205.38z
				 M264.96,206.23c0,0.14,0.07,0.21,0.07,0.21c0.07,0.07,0.14,0.07,0.28,0.07l0.07,0c0.07,0,0.07,0,0.07,0
				c0.07-0.07,0.07-0.07,0.07-0.07c0-0.07,0.07-0.07,0.07-0.14l-0.07-0.07c0,0-0.07-0.07-0.14-0.07c0,0-0.07-0.07-0.14-0.07
				c-0.13,0-0.18-0.07-0.35-0.07c-0.19-0.18-0.29-0.22-0.29-0.5c0-0.14,0-0.21,0-0.28c0.07-0.07,0.14-0.14,0.21-0.21
				c0.07,0,0.14-0.07,0.21-0.07c0.07-0.07,0.14-0.07,0.21-0.07c0.14,0,0.21,0,0.29,0.07c0.07,0,0.14,0.07,0.21,0.07
				c0.07,0.07,0.14,0.14,0.14,0.21c0.07,0.07,0.07,0.21,0.07,0.28l-0.43,0l-0.07-0.14c-0.07-0.07-0.07-0.07-0.14-0.07l-0.07,0
				l-0.07,0c-0.07,0-0.07,0-0.07,0l-0.07,0.07l0,0.07c0,0.07,0,0.07,0,0.07c0.07,0.07,0.07,0.07,0.14,0.07
				c0.07,0.07,0.07,0.07,0.14,0.07c0.07,0,0.14,0,0.21,0.07c0.07,0,0.14,0,0.14,0.07c0.07,0,0.14,0.07,0.21,0.07
				c0,0.07,0.07,0.14,0.07,0.14c0.07,0.07,0.07,0.14,0.07,0.28c0,0.07,0,0.21-0.07,0.28c-0.07,0.07-0.07,0.14-0.14,0.21
				c-0.07,0.08-0.46,0.14-0.57,0.14c-0.07,0-0.14,0-0.28-0.07c-0.07,0-0.14-0.07-0.21-0.07c-0.07-0.07-0.14-0.14-0.14-0.21
				c-0.07-0.14-0.07-0.21-0.07-0.35L264.96,206.23z"/>
			<path class="st2" d="M220.57,205.91l0-0.35c0.07,0,0.14,0,0.21,0c0.07,0,0.14-0.07,0.21-0.07c0-0.07,0.07-0.07,0.14-0.14
				c0-0.07,0-0.07,0-0.14l0.43,0l0.01,1.85l-0.5,0l0-1.13 M222.56,206.55c0,0.11,0.17,0.21,0.21,0.21l0.07,0
				c0.26,0,0.35-0.3,0.35-0.5c0,0.08-0.22,0.15-0.28,0.21c-0.07,0-0.14,0-0.14,0c-0.07,0-0.21,0-0.28-0.07
				c-0.07,0-0.14-0.07-0.21-0.14c-0.09-0.12-0.14-0.27-0.14-0.42c0-0.14,0-0.21,0.07-0.29c0-0.07,0.07-0.14,0.14-0.21
				c0.07-0.07,0.14-0.14,0.21-0.14c0.07-0.07,0.21-0.07,0.28-0.07c0.14,0,0.28,0.07,0.35,0.07c0.14,0.07,0.21,0.14,0.29,0.21
				c0.19,0.19,0.23,1.12,0.01,1.35c-0.07,0.14-0.21,0.21-0.28,0.22c-0.07,0.07-0.21,0.14-0.35,0.14c-0.21,0-0.36-0.07-0.5-0.14
				c-0.07-0.07-0.14-0.21-0.21-0.42L222.56,206.55z M222.84,206.12c0.07,0,0.14,0,0.14,0c0.09,0,0.21-0.23,0.21-0.29
				c0-0.07-0.07-0.21-0.07-0.21c-0.07-0.07-0.14-0.14-0.29-0.14c-0.04-0.02-0.28,0.18-0.28,0.21c0,0.07,0,0.07,0,0.14
				c0,0.07,0,0.14,0.07,0.21C222.7,206.12,222.77,206.12,222.84,206.12z M224.62,205.47c-0.07,0-0.07,0-0.14,0
				c-0.03,0-0.14,0.11-0.14,0.14c0,0,0,0,0,0.07c0,0.1,0.02,0.21,0.14,0.21c0.07,0,0.07,0,0.14,0l0.07,0c0.06,0,0.21-0.16,0.21-0.21
				l-0.07-0.14c-0.07-0.07-0.07-0.07-0.14-0.07L224.62,205.47z M223.84,206.47c0,0,0-0.07,0-0.14c0-0.07,0.14-0.21,0.21-0.21
				c0-0.07,0.07-0.07,0.14-0.07c-0.07,0-0.14-0.07-0.21-0.14c-0.31-0.47,0.31-0.79,0.63-0.79c0.07,0,0.14,0,0.21,0.07
				c0.07,0,0.14,0,0.21,0.07c0.07,0,0.14,0.07,0.21,0.14c0,0.07,0.07,0.14,0.07,0.28c-0.02,0.13-0.16,0.36-0.28,0.36
				c0.07,0,0.14,0.07,0.22,0.14c0.07,0.07,0.14,0.21,0.14,0.28c0,0.14-0.07,0.21-0.07,0.29c-0.07,0.07-0.14,0.14-0.21,0.21
				c-0.07,0-0.14,0.07-0.21,0.07c-0.14,0-0.21,0.07-0.28,0.07c-0.19,0-0.39-0.03-0.57-0.14c-0.07-0.07-0.14-0.14-0.14-0.21
				C223.84,206.68,223.84,206.61,223.84,206.47z M224.62,206.18c-0.07,0-0.07,0-0.14,0c-0.1,0.03-0.21,0.14-0.21,0.29
				c0,0.14,0.13,0.27,0.22,0.28c0.07,0,0.07,0,0.14,0c0.2,0,0.28-0.12,0.28-0.28c0-0.07,0-0.14-0.07-0.21
				C224.76,206.25,224.69,206.18,224.62,206.18z M225.75,205.89l0-0.36c0.07,0,0.14,0,0.21,0c0,0,0.07-0.07,0.14-0.07
				c0.07-0.07,0.07-0.07,0.14-0.14c0-0.07,0.07-0.07,0.07-0.14l0.35,0l0.01,1.85l-0.5,0l0-1.14L225.75,205.89z"/>
			<path class="st2" d="M217.31,208.13c0.28,0,0.57-0.07,0.78-0.15c0.21-0.07,0.42-0.21,0.64-0.43c0.14-0.14,0.28-0.36,0.42-0.64
				c0.07-0.21,0.14-0.5,0.14-0.78c0-0.28-0.07-0.49-0.15-0.78c-0.14-0.21-0.29-0.43-0.43-0.64c-0.21-0.14-0.43-0.28-0.64-0.35
				c-0.21-0.14-0.5-0.21-0.78-0.21c-0.21,0-0.5,0.07-0.71,0.22c-0.21,0.07-0.42,0.22-0.64,0.36c-0.14,0.21-0.28,0.43-0.42,0.64
				c-0.07,0.28-0.14,0.5-0.14,0.78c0,0.28,0.08,0.57,0.15,0.78c0.14,0.28,0.29,0.49,0.43,0.63c0.21,0.21,0.43,0.36,0.64,0.43
				C216.81,208.06,217.1,208.13,217.31,208.13 M215.74,206.15c0,0.28,0.07,0.5,0.15,0.64c0.07,0.21,0.21,0.43,0.36,0.57
				c0.14,0.14,0.29,0.21,0.5,0.35c0.14,0.07,0.35,0.07,0.57,0.07c0.28,0,0.43,0,0.64-0.08c0.21-0.14,0.35-0.21,0.5-0.36
				c0.14-0.14,0.21-0.35,0.35-0.57c0.07-0.14,0.07-0.36,0.07-0.64c0-0.21,0-0.43-0.07-0.64c-0.14-0.21-0.22-0.35-0.36-0.5
				c-0.14-0.14-0.29-0.28-0.5-0.35c-0.21-0.07-0.36-0.14-0.64-0.14c-0.21,0-0.43,0.07-0.57,0.14c-0.21,0.07-0.35,0.21-0.49,0.36
				c-0.14,0.14-0.28,0.29-0.35,0.5C215.81,205.72,215.74,205.94,215.74,206.15z M218.37,206.49c-0.07,0.14-0.07,0.28-0.14,0.36
				c-0.07,0.14-0.14,0.21-0.21,0.29c-0.07,0.07-0.14,0.14-0.28,0.14c-0.07,0.07-0.21,0.07-0.35,0.07c-0.14,0-0.28,0-0.43-0.07
				c-0.14-0.07-0.29-0.14-0.36-0.28c-0.14-0.07-0.21-0.21-0.21-0.36c-0.07-0.14-0.14-0.28-0.14-0.5c0-0.14,0.07-0.36,0.14-0.5
				c0-0.14,0.07-0.29,0.21-0.36c0.07-0.14,0.21-0.21,0.35-0.28c0.14,0,0.28-0.07,0.43-0.07c0.14,0,0.21,0,0.36,0.07
				c0.14,0,0.21,0.07,0.29,0.14c0.07,0.07,0.14,0.14,0.21,0.28c0.07,0.07,0.07,0.21,0.14,0.36l-0.35,0
				c-0.07-0.14-0.14-0.28-0.21-0.35c-0.14-0.07-0.29-0.14-0.43-0.14c-0.07,0-0.21,0-0.28,0.07c-0.14,0.07-0.21,0.07-0.21,0.14
				c-0.07,0.14-0.14,0.21-0.14,0.28c-0.07,0.14-0.07,0.21-0.07,0.35c0,0.14,0,0.21,0.07,0.36c0,0.07,0.07,0.21,0.14,0.28
				c0.07,0.07,0.14,0.14,0.22,0.14c0.07,0.07,0.21,0.07,0.28,0.07c0.21,0,0.36,0,0.43-0.14c0.14-0.07,0.21-0.21,0.21-0.36
				L218.37,206.49z"/>
			<path class="st2" d="M250.33,207l0.57,0l0.07-0.57l-0.57,0 M249.54,204.94c0.14,0,0.21,0,0.35,0.07c0.07,0,0.21,0.07,0.21,0.14
				c0.07,0.07,0.14,0.21,0.14,0.28c0.07,0.07,0.07,0.21,0.07,0.28c0,0.07,0,0.07,0,0.14l0,0.07c0,0.21-0.07,0.36-0.14,0.5
				c-0.07,0.14-0.14,0.21-0.28,0.36c-0.3,0.33-0.82,0.3-1.06,0.22c-0.31-0.31-0.43-0.35-0.43-0.78c0-0.07,0-0.07,0-0.14
				c0,0,0-0.07,0-0.14c0-0.14,0.07-0.28,0.14-0.43c0.07-0.07,0.14-0.21,0.21-0.28c0.14-0.14,0.21-0.21,0.36-0.21
				C249.26,204.95,249.4,204.94,249.54,204.94z M249.47,205.44c-0.07,0-0.14,0-0.21,0c-0.07,0.07-0.07,0.07-0.14,0.14
				c-0.05,0.05-0.15,0.28-0.14,0.35c0,0.07,0,0.14,0,0.21c0,0.07,0,0.07,0,0.14c0,0.07,0.07,0.07,0.07,0.14l0.07,0.07
				c0.07,0,0.07,0.07,0.14,0.07c0.07,0,0.14-0.07,0.21-0.07c0.12-0.09,0.15-0.2,0.21-0.29c0.12-0.24,0.12-0.46,0-0.71
				c-0.07,0-0.07-0.07-0.14-0.07L249.47,205.44z M247.77,205.73c0-0.14,0-0.21-0.07-0.21c-0.07-0.07-0.14-0.07-0.21-0.07
				c-0.14,0-0.21,0-0.28,0.15c-0.07,0.07-0.14,0.21-0.14,0.43l0,0.07c0,0.07,0,0.07,0,0.14c0,0,0,0.07,0,0.14
				c0,0.08,0.2,0.21,0.29,0.21c0.07,0,0.14-0.07,0.21-0.14c0.07-0.07,0.14-0.14,0.14-0.21l0.57,0c0,0.14-0.07,0.21-0.14,0.36
				c-0.07,0.07-0.14,0.14-0.21,0.22c-0.07,0.07-0.21,0.14-0.28,0.21c-0.4,0-0.7,0.09-0.99-0.21c-0.07-0.07-0.07-0.14-0.14-0.21
				c-0.07-0.14-0.07-0.21-0.07-0.35c0-0.07,0-0.07,0-0.14c0-0.61,0.54-1.14,1.13-1.14c0.29,0,0.43,0.07,0.57,0.14
				c0.14,0.14,0.21,0.35,0.21,0.57c0,0,0,0,0,0.07L247.77,205.73z M245.15,207.02l0.07-0.57l0.57,0l-0.14,0.57L245.15,207.02z
				 M244.86,207.02l-0.35,0l0-0.21l-0.07,0.07c-0.07,0.07-0.14,0.07-0.14,0.07c-0.12,0.12-0.48,0.07-0.64,0.07
				c-0.14-0.07-0.21-0.07-0.28-0.14c-0.14-0.14-0.21-0.44-0.21-0.64l0-0.07c0-0.16,0.01-0.34,0.14-0.57
				c0.07-0.14,0.14-0.28,0.28-0.36c0.07-0.07,0.21-0.14,0.35-0.22c0.17-0.17,0.76-0.09,0.93,0.07c0.07,0.07,0.14,0.14,0.14,0.28
				c0.07,0.07,0.07,0.14,0.07,0.28l-0.57,0c0-0.07-0.07-0.14-0.07-0.14c-0.07-0.07-0.14-0.07-0.21-0.07c-0.07,0-0.07,0-0.14,0
				c-0.07,0.07-0.07,0.07-0.14,0.14c0,0.07-0.07,0.07-0.07,0.14c-0.07,0.07-0.07,0.21-0.07,0.28c0,0.07,0,0.14,0,0.14
				c0,0.07,0,0.14,0,0.14c0,0.27,0.43,0.43,0.57,0.14c0.07-0.07,0.07-0.07,0.07-0.14l-0.28,0l0.07-0.43l0.85,0L244.86,207.02z
				 M241.53,207.04l0.57,0l0.14-0.71l0.64,0l0.07-0.5l-0.64,0l0.07-0.35l0.78,0l0.07-0.5l-1.42,0.01L241.53,207.04z M239.18,207.05
				l0.27-2.06l0.71,0l0.15,1.28l0.56-1.28l0.71,0l-0.35,2.06l-0.5,0l0.07-0.64l0.07-0.29l0.07-0.36l-0.56,1.28l-0.35,0l-0.15-1.28
				l-0.07,0.28l0,0.28l-0.14,0.71L239.18,207.05z M237.9,207.05l-0.64,0l0.14-0.78l-0.5-1.28l0.71,0l0.22,0.71l0.42-0.71l0.64,0
				l-0.85,1.28L237.9,207.05z M234.92,207.06l0.57,0l0.14-0.29l0.57,0l0.07,0.28l0.57,0l-0.36-2.06l-0.57,0L234.92,207.06z
				 M236.12,205.64l-0.35,0.71l0.42,0L236.12,205.64z M234.42,206.28l0.35-1.28l0.64,0l-0.77,2.06l-0.64,0l-0.01-1.21l-0.42,1.21
				l-0.57,0l-0.15-2.06l0.57-0.01l0,1.28l0.42-1.28l0.5,0L234.42,206.28z M230.8,207.08l0.35-2.06l0.78,0
				c0.14,0,0.21,0.07,0.36,0.07c0.07,0,0.14,0.07,0.21,0.14c0.07,0.07,0.14,0.14,0.22,0.21c0,0.07,0,0.21,0,0.35l0,0.07
				c0,0.07,0,0.07,0,0.14c0,0.21-0.07,0.36-0.14,0.5c-0.07,0.14-0.14,0.21-0.21,0.28c-0.14,0.07-0.21,0.14-0.35,0.22
				c-0.14,0-0.28,0.07-0.43,0.07L230.8,207.08z M231.51,206.58l0.07,0c0.14,0,0.28-0.07,0.35-0.14c0.07-0.07,0.14-0.21,0.21-0.43
				l0-0.07c0-0.07,0-0.07,0-0.07c0-0.14-0.07-0.21-0.07-0.29c-0.07-0.07-0.21-0.07-0.28-0.07l-0.14,0L231.51,206.58z M229.95,207.08
				l0.57,0l0.35-2.06l-0.64,0L229.95,207.08z M227.6,207.09l0.28-2.06l0.71,0l0.15,1.28l0.49-1.28l0.78,0l-0.35,2.06l-0.57,0
				l0.14-0.64l0.07-0.28l0.07-0.35l-0.56,1.28l-0.43,0l-0.08-1.28l-0.07,0l0,0.29l0,0.28l-0.14,0.71L227.6,207.09z"/>
			<path class="st2" d="M144.92,174.34c0.2,0,0.33-0.01,0.39,0.25l-0.12,2.77c0,0.25-0.04,0.33-0.3,0.34l-9.45-0.12
				c-0.26-0.01-0.35-0.16-0.34-0.45l0.07-2.41c0-0.27,0.13-0.37,0.4-0.37 M146.44,173.11c-0.79,0-11.78-0.05-12.57-0.05
				c-0.01,0.59-0.06,5.12-0.06,5.71c0.79,0,11.75,0.11,12.6,0.11C146.41,178.28,146.43,173.71,146.44,173.11z M147.98,171.64
				c-1.58-0.01-14.11-0.06-15.62-0.06c-0.07,1.27-0.14,6.55-0.18,8.42c-0.01,0.26,0.04,0.39,0.25,0.4
				c2.34,0.03,13.97,0.04,15.42,0.05C147.86,179.06,147.98,172.95,147.98,171.64z M148.47,170.43l-16.45,0
				c-1.08-0.04-0.95-0.1-0.95,0.82l-0.24,9.65c0,0.92,0,0.92,0.91,0.93l16.5,0.02c0.99,0.07,0.92,0.08,0.93-0.85l0.22-9.65
				C149.4,170.17,149.33,170.43,148.47,170.43z"/>
			<polyline class="st2" points="276.86,147.88 276.44,147.88 276.43,146.18 275.79,146.18 275.79,145.82 277.43,145.82 
				277.43,146.17 276.86,146.17 			"/>
			<polyline class="st2" points="277.65,147.87 277.22,147.88 277.22,147.45 277.65,147.45 			"/>
			<polyline class="st2" points="280.13,147.86 279.71,147.86 279.7,146.16 279.35,147.87 278.92,147.87 278.56,146.17 
				278.57,147.87 278.14,147.87 278.14,145.88 278.77,145.88 279.14,147.44 279.49,145.88 280.12,145.87 			"/>
			<polyline class="st2" points="281.06,147.86 280.63,147.86 280.63,147.44 281.05,147.43 			"/>
			<path class="st2" d="M183.14,120.32c-0.4,0.14-0.39,0.56-0.6,0.96c-0.12,0.41-0.51,0.95-0.79,1.09c-0.55,0.27-1.8-0.39-2.34,0.01
				c-0.68,0.55-0.66,1.49-0.65,2.12c0.01,0.55,0.1,1.09,0.3,1.36c0.62-0.34,0.87-1.3,1.49-1.52c0.41-0.21,0.77,0.2,1.17,0.06
				c0.27-0.41,0.2-0.75,0.46-1.23c0.27-0.07,0.56,0.27,0.83,0.26c0.33-0.34,0.32-0.82,0.59-1.09c0.47-0.41,1.6,0.34,1.7-0.7
				C184.75,121.33,183.68,120.12,183.14,120.32 M185.13,120.38c0.48,0.2,0.9,0.26,1.24-0.01c0.21-0.13,0.26-0.41,0.54-0.48
				c0.42,0.34,0.22,0.74-0.03,1.16c-0.13,0.13-0.35-0.06-0.48,0.07c-0.32,0.68-0.5,1.5-1.19,1.7c-0.41,0.07-1.04-0.19-1.3,0.16
				c-0.33,0.34-0.11,0.88-0.51,1.44c-0.53,0.67-1.14,1.03-1.91,0.9c-0.35-0.07-0.7-0.27-0.97-0.2c-0.28,0.14-0.81,1.04-1.15,1.45
				c-0.33,0.41-0.88,1.04-1.22,1.25c-0.62,0.28-1.25,0.01-2.01,0.08c-0.13,0.15-0.33,0.57-0.54,0.57c-0.5-0.35-0.57-0.83-0.24-1.38
				c0.42,0.2,0.77,0.27,1.18,0.2c0.35-0.01,1.04-0.22,1.17-0.42c0.28-0.28,0.33-0.82,0.39-1.24c0.18-1.02-0.26-2.17,0.48-3.2
				c0.8-1.16,1.91-0.77,3.08-0.77c0.33-0.54,0.38-1.43,0.98-1.91c0.54-0.4,1.3-0.07,2.07,0.4
				C184.85,120.18,185,120.31,185.13,120.38z"/>
			<path class="st2" d="M177.96,128.7c0.89-0.56,1.75,0.26,2.65,0.46c0.49,0.12,1.46-0.01,1.86-0.37c0.35-0.28,0.54-0.83,0.95-1.11
				c0.47-0.41,1.3-0.49,1.7-0.97c0.53-0.62,0.15-1.7,0.9-2.13c0.29,0.28,0.16,0.62,0.17,1.04c0.01,0.34,0.09,0.75-0.11,1.03
				c-0.13,0.34-0.61,0.49-0.81,0.83c-0.13,0.14-0.2,0.41-0.33,0.55c-0.13,0.14-0.41,0.22-0.68,0.42c-0.34,0.21-0.54,0.56-0.81,0.7
				c-0.2,0.13-0.62,0.21-0.89,0.28c-0.83,0.22-1.87,0.43-2.77,0.15c-0.35-0.13-0.63-0.34-0.98-0.54
				C178.53,128.98,178.11,129.04,177.96,128.7"/>
			<path class="st2" d="M198.44,155.88c1.35-0.23,0.95,2.27,1.48,2.64c0.36,0.29,0.56-0.08,0.94,0.15
				c-0.07,0.22-0.27,0.45-0.41,0.59c-0.49,0.22-1.66-0.36-1.84-0.95c-0.16-0.3-0.17-0.73-0.26-1.17
				C198.26,156.68,198.24,156.17,198.44,155.88"/>
			<path class="st2" d="M176.87,115.74c-0.6,0.6-1.06,1.48-1.19,2.22c-0.27,0-0.41-0.26-0.69-0.33c-0.75-0.39-1.37,0.28-1.9,0.95
				c-0.56-0.19-0.14-0.73,0.05-1c0.54-0.6,1.49-0.69,2.11-0.62C175.73,116.41,176.17,115.2,176.87,115.74"/>
			<path class="st1" d="M204.17,168.77c-0.02-0.37,0.1-1.05-0.13-1.2c-0.22-0.14-0.5,0-0.57,0.16c-0.13,0.22,0.04,0.89,0.2,1.19
				c0.09,0.45,0.25,0.81,0.56,1.04C204.28,169.66,204.2,169.28,204.17,168.77"/>
			<path class="st2" d="M168.25,99.87c-0.87-0.25-1.67,0.01-2.4,0.41c-0.6,0.33-1.07,0.79-1.68,0.85c0.27-0.97,1.13-1.42,1.93-1.94
				c0.4-0.2,1.13-0.78,1.47-0.71C168.17,98.51,168.38,99.41,168.25,99.87"/>
			<path class="st2" d="M153.78,110.14c-0.01,1.07-1.23,1.08-2.04,0.56c0.01-0.13-0.13-0.26,0.01-0.4
				C152.5,110.43,153.11,109.96,153.78,110.14"/>
			<path class="st2" d="M101.65,146.75c3.33-0.79,5.88-3.72,5.87-7.27c-0.02-4.12-3.44-7.44-7.63-7.43
				c-1.92,0.01-3.69,0.73-5.03,1.87c-0.35,0.07-0.5-0.14-0.5-0.35c0,0-0.03-24.01-0.11-25.85c-1.49,0.01-18.96-0.28-26.28-0.46
				c-1.78-0.06-3.48,0.94-4.25,1.37c-0.36,0.29-0.42,0.29-0.43-0.28c-0.14,0-0.1-7.1-0.18-9.8c-2.47,2.92-17.6,19.04-17.68,18.97
				c-0.35,0.43-0.5,0.28-0.78,0.07c0,0-16.55-17.4-19.4-20.3c0.02,4.4,0.21,50.5,0.21,50.5c0,0.21-0.07,0.36-0.14,0.57
				c-0.14,0.21-0.42,0.36-0.78,0.43c0,0-3.05-0.13-4.47-0.05c0.01,1.7,0.56,49.21,0.56,51.06c1.92-0.01,66.98,0.22,66.98,0.22
				s5.82-0.03,5.9-0.02c0.64-0.07,1.42-0.08,1.85-0.15c2.2,0.7,4.55,1.12,6.97,1.11c11.36-0.05,20.99-7.54,24.29-17.78l-12.96-7.62
				c-0.14-0.07-0.14-0.14,0-0.21l13.11-7.29c-3.17-10.64-13-18.34-24.65-18.3c-10.16,0.04-18.87,5.9-22.95,14.44
				c-0.42,0.71-0.92,0.36-0.99,0.01c0.07-0.07-8.88-16.58-8.95-16.44c-0.22-0.43-0.57-0.85,1.35-0.93c0.36,0,27.56,0.17,29.76,0.16
				C100.44,146.97,101.15,146.82,101.65,146.75 M66.82,155.7l1.57,3.05l0.22,0.5l0.36,0.64l0.43,0.78l0.43,0.85l0.5,0.99l0.65,1.06
				l0.57,1.2l0.64,1.21l0.71,1.35l0.71,1.35l0.79,1.41l0.79,1.42l0.79,1.49l0.78,1.49l0.79,1.49l0.79,1.56l0.79,1.49l0.79,1.42
				l0.79,1.49l0.79,1.35l0.72,1.34l0.65,1.35l0.64,1.2l0.64,1.13l0.57,1.06l0.5,0.92l0.43,0.85l0.43,0.71l0.29,0.57l0.29,0.49
				l1.29,2.41l-2.77,0.08l-0.5,0l-0.64,0l-0.71,0l-0.92,0.01l-0.92,0l-1.07,0l-1.14,0.01l-1.28,0l-1.28,0.01l-1.35,0.01l-1.42,0
				l-1.42,0.01l-1.42,0.01l-1.49-0.06l-1.49,0.01l-1.56,0l-1.42,0.01l-1.49,0.01l-1.42,0.01l-1.42,0l-1.35,0.01l-1.28,0.01
				l-1.21-0.07l-1.14,0l-1.07,0l-0.99,0l-0.85,0l-0.71,0l-0.64,0l-0.5,0l-2.63,0.01l1.13-2.42l0.21-0.5l0.28-0.57l0.35-0.71
				l0.35-0.85l0.42-1l0.49-1l0.56-1.14l0.56-1.21l0.56-1.28l0.63-1.35l0.63-1.43l0.63-1.42l0.7-1.49l0.7-1.49l0.7-1.49l0.63-1.49
				l0.7-1.49l0.7-1.42l0.63-1.5l0.7-1.41l0.63-1.35l0.56-1.28l0.56-1.28l0.56-1.14l0.49-1.07l0.49-1l0.35-0.93l0.42-0.71l0.28-0.64
				l0.21-0.57L66.82,155.7z M66.9,159.04c1.57,3.05,17.25,32.38,18.61,34.86c-2.84,0.08-31.96-0.01-34.73,0
				C51.97,191.34,65.42,162.17,66.9,159.04z M69.49,184.8c-0.71,1-2.06,1.29-3.12,0.58c-1-0.7-1.29-2.13-0.51-3.19
				c0.71-1,2.05-1.21,3.12-0.51C69.98,182.39,70.2,183.8,69.49,184.8z M46.57,155.5l0.28,0l0.36,0.07l0.36,0.07l0.28,0l0.36,0.07
				l0.35,0.14l0.5,0.07l1,0.42l1,0.42l0.85,0.57l0.79,0.56l0.71,0.64l0.64,0.64l0.57,0.71l0.57,0.78l0.43,0.78l0.36,0.78l0.29,0.78
				l0.22,0.85l0.14,0.85l0.15,0.85l0,0.85l-0.07,0.85l-0.07,0.85l-0.21,0.85l-0.21,0.85l-0.35,0.78l-0.35,0.78l-0.42,0.71
				l-0.49,0.71l-0.57,0.71l-0.64,0.64l-0.71,0.57l-0.71,0.5l-0.85,0.5l-0.85,0.36l-0.92,0.36l-0.92,0.22l-0.99,0.22l-0.36,0
				l-0.35,0.07l-0.35,0l-0.36,0l-0.43,0l-0.35,0.07l-0.35,0l-0.35-0.07l-0.43,0l-0.35,0l-0.36,0l-0.36,0l-0.35,0l0.08,18.39
				L25,195.28l-0.16-39.84l16.62-0.07l0.28,0l0.28,0l0.28,0.07l0.28,0l0.29,0l0.21,0l0.28,0l0.21,0l0.35,0l0.36,0l0.35,0l0.36,0
				l0.28,0l0.35,0l0.29,0.07l0.28,0L46.57,155.5z M41.82,175.4c-0.5,0-0.57,0.07-0.57,0.57l0.07,17.9l-14.85-0.08l-0.15-36.85
				l15.13-0.06c0.78,0,1.49,0.07,2.13,0.06c2.13-0.01,3.13-0.08,5.04,0.41c9.82,3.37,8.38,16.72-1.42,18.04
				C45.73,175.59,43.39,175.46,41.82,175.4z M48.32,167.21c-0.78,1.14-2.34,1.43-3.41,0.65c-1.14-0.78-1.43-2.34-0.65-3.48
				c0.78-1.07,2.34-1.36,3.48-0.58C48.81,164.58,49.1,166.14,48.32,167.21z M95.86,136.69c-1.62,2.28-1.04,5.4,1.24,7.03
				c2.28,1.55,5.4,0.97,6.95-1.31c1.62-2.28,1.05-5.4-1.23-6.95C100.53,133.83,97.41,134.41,95.86,136.69z M97.07,137.54
				c1.13-1.57,3.33-2,4.9-0.87c1.57,1.13,2,3.33,0.87,4.9c-1.13,1.64-3.33,2-4.9,0.87C96.3,141.3,95.94,139.1,97.07,137.54z
				 M62.57,143.36c-0.5,0.15-0.71-0.07-0.57-0.57c-0.01-1.7-0.02-4.76,0.05-6.32c-0.02-3.76-0.17-6.25-0.04-9.52
				c0-0.21-0.07-0.21,0.14-0.21c0.99,0.07,1.85,0.06,3.19,0.06c0.22,0,0.36,0,0.29-0.07l-0.71-0.42l-0.21-0.14
				c-0.71-0.57-1.29-1.2-1.79-1.91c-0.29-0.35-0.5-0.71-0.71-1.06c-0.72-1.49-0.93-2.91-0.73-4.54c0.49-2.42,1.83-4.41,4.03-5.77
				c1.06-0.57,2.06-0.86,3.19-0.87l20.03,0.13c0.28,0,0.43,0.21,0.43,0.56c-0.12,4.9,0.04,10.51,0.06,15.27
				c0.07,0.29-0.07,0.43-0.64,0.36c-1.21-0.07-2.41-0.06-3.62-0.06l-0.36,0c-0.07,0-0.14,0.07-0.07,0.14
				c0.43,0.14,0.78,0.28,1.14,0.49c1.99,1.2,3.14,2.83,3.65,5.24c0.65,3.83-0.9,6.68-4.08,8.4c-0.71,0.29-1.35,0.57-2.06,0.72
				c-0.57,0.14-1.28,0.07-1.85,0.15C75.07,143.38,68.75,143.4,62.57,143.36z M87.66,113.64c-0.06,1.64-0.02,11.86-0.09,13.28
				c-1.21,0.08-6.46-0.05-6.54-0.05c-0.5,0-0.57,0.36-0.14,0.71c0.85,0.57,4.84,2.47,6.27,4.88c1.93,3.33,0.74,8.31-4.29,9.54
				c-0.28,0.07-1.78,0.08-2.34,0.08c-0.99,0-2.49,0.01-4.47-0.05c-3.62,0.01-8.95,0.11-12.36-0.09c-0.08-1.49-0.12-12.36-0.2-13.92
				c1.21-0.08,5.75,0.05,5.75,0.05c0.5,0,0.78-0.43,0.21-0.78c-1.64-1.13-2.99-1.62-3.84-2.33c-0.93-0.63-1.43-1.41-1.85-2.12
				c-2.57-3.97,0.88-9.38,5.01-9.33L87.66,113.64z M83,136.53c-0.5,0.64-1.35,0.79-1.99,0.29c-0.64-0.43-0.86-1.35-0.36-1.99
				c0.42-0.71,1.35-0.79,1.99-0.36C83.28,134.89,83.42,135.82,83,136.53z M70.72,120.53c-0.5,0.71-1.35,0.86-2.13,0.43
				c-0.64-0.49-0.79-1.42-0.29-2.06c0.42-0.64,1.35-0.86,2.06-0.44C71,118.96,71.21,119.88,70.72,120.53z M58.52,108.22
				c0.49-0.5,1.2-0.78,0.85,0.57c0,0.07,0,0.14,0,0.14c0.05,11.58,0.24,22.94,0.21,34.45c-10.09,0.11-20.24-0.2-30.4-0.02l0.07-1.78
				l0-0.36c0.05-6.6-0.05-13.21-0.08-19.81c-0.02-4.48-0.04-9.02-0.06-13.57l0-0.28c0-0.64,0.28-0.64,0.85-0.15l0.29,0.28l1.71,1.77
				l0.28,0.35c1.14,1.13,2.21,2.26,3.35,3.4c2.99,3.18,5.99,6.51,9.06,9.69l0.14,0.07l0.28-0.29
				C49.61,117.98,53.93,112.92,58.52,108.22z M45.1,124.68c0.5-0.43,2.55-2.64,2.97-3.07c0,0,7.64-8.27,10.18-10.84
				c0.02,3.98-0.02,29.48-0.01,31.18c-1.7,0.01-25.64-0.11-27.49-0.1c0.06-1.78-0.11-27.84-0.13-31.68
				c2.92,3.04,13.7,14.36,13.7,14.36C44.67,124.82,44.74,124.89,45.1,124.68z M111.64,157.5l0.5,0.28l0.57,0.35l0.57,0.28l0.5,0.35
				l0.5,0.35l0.5,0.35l0.5,0.43l0.5,0.42l0.43,0.42l0.5,0.43l0.43,0.42l0.43,0.5l0.36,0.42l0.43,0.5l0.36,0.5l0.36,0.57l1.22,1.77
				l-16.65,9.58l16.59,9.88l-1.2,1.78l-0.35,0.5l-0.35,0.5l-0.42,0.43l-0.35,0.5l-0.43,0.43l-0.42,0.5l-0.5,0.43l-0.43,0.36
				l-0.5,0.43l-0.5,0.36l-0.49,0.43l-0.5,0.36l-0.5,0.28l-0.5,0.36l-0.57,0.29l-0.57,0.29l-0.57,0.28l-0.57,0.29l-0.57,0.21
				l-0.57,0.29l-0.57,0.22l-0.64,0.14l-0.57,0.22l-0.64,0.14l-0.64,0.14l-0.64,0.07l-0.64,0.14l-0.64,0.07l-0.64,0l-0.64,0.07
				l-0.71,0l-0.99,0.01l-1.07-0.14l-1-0.06l-0.99-0.21l-0.99-0.21l-0.92-0.28l-1-0.28l-0.92-0.42l-0.85-0.35l-0.93-0.49l-0.85-0.5
				l-0.78-0.49l-0.79-0.56l-0.78-0.57l-0.78-0.64l-0.64-0.71l-0.71-0.71l-0.64-0.71l-0.57-0.78l-0.57-0.78l-0.57-0.85l-0.5-0.85
				l-0.43-0.85l-0.43-0.92l-0.36-0.92l-0.29-0.92l-0.29-0.99l-0.22-0.92l-0.22-0.99l-0.15-1.06l-0.08-0.99l0-1.07l0-1.06l0.07-1
				l0.14-0.99l0.21-1l0.21-0.99l0.28-1l0.28-0.92l0.35-0.93l0.42-0.85l0.42-0.92l0.49-0.85l0.57-0.78l0.56-0.78l0.57-0.78l0.64-0.78
				l0.71-0.64l0.71-0.71l0.71-0.64l0.78-0.57l0.78-0.57l0.78-0.57l0.85-0.43l0.92-0.5l0.85-0.36l0.92-0.36l0.99-0.36l0.92-0.29
				l0.99-0.22l0.99-0.15l1-0.15l1.07-0.08l0.99-0.08l0.71,0l0.64,0.07l0.64,0.07l0.71,0.07l0.64,0.07l0.64,0.14l0.57,0.07l0.64,0.21
				l0.64,0.14l0.64,0.21l0.57,0.21l0.57,0.21l0.64,0.21l0.57,0.28L111.64,157.5z M102.33,156.76c6.61-0.03,12.52,3.35,15.87,8.6
				l-16.86,9.65c-0.36,0.14-0.5,0.43-0.14,0.64l16.95,10.09c-3.32,5.13-9.13,8.56-15.66,8.59c-10.37,0.04-18.86-8.38-18.9-18.74
				C83.54,165.22,91.96,156.8,102.33,156.76z M29.53,100.14c-0.92-0.83-1.71-1.77-2.59-2.65c-0.94-0.93-1.83-1.93-2.76-2.87
				c0.02,4.64,0.04,9.28,0.05,13.91c0.03,8.57,0.07,17.13,0.1,25.7c0.02,4.48,0.04,8.96,0.05,13.44c-1.82,0-3.63-0.08-5.46,0.03
				c0.17,2.81,0.1,5.65,0.11,8.46c0.01,2.97,0.09,5.93,0.11,8.9c0.04,5.81,0.18,11.62,0.21,17.44c0.01,2.91,0.09,5.81,0.11,8.72
				c0.02,2.77,0.11,5.55,0.11,8.31c0,0.43,0,0.86,0,1.29c5.8,0,11.6,0.02,17.4,0.07c5.91,0.05,11.82-0.05,17.72,0.07
				c5.84,0.12,11.69-0.06,17.53,0.07c2.85,0.06,5.7-0.03,8.55-0.04c2.68-0.01,5.36,0.05,8.04,0.04c1.64-0.01,3.28-0.03,4.92-0.02
				c0.59,0,1.23-0.26,1.79-0.07c0.63,0.2,1.27,0.42,1.92,0.52c1.38,0.21,2.72,0.5,4.12,0.52c1.4,0.01,2.77-0.05,4.16-0.25
				c5.69-0.82,11.12-3.34,15.18-7.45c2.04-2.07,3.65-4.34,5.03-6.89c0.67-1.23,1.16-2.51,1.61-3.84c0.02-0.06,0.34-0.91,0.31-0.92
				c-0.09-0.05-0.17-0.1-0.26-0.15c-0.52-0.3-1.04-0.61-1.56-0.91c-3.5-2.05-7-4.09-10.5-6.14c2.82-1.57,5.64-3.14,8.46-4.71
				c1.28-0.71,2.57-1.43,3.85-2.14c0.38-0.21-0.17-1.05-0.28-1.38c-0.22-0.64-0.47-1.27-0.69-1.91c-0.95-2.69-2.64-5.14-4.47-7.31
				c-1.84-2.19-4.1-4.14-6.59-5.56c-1.23-0.7-2.47-1.38-3.8-1.87c-1.36-0.49-2.71-0.89-4.1-1.26c-2.74-0.73-5.63-0.71-8.44-0.51
				c-2.86,0.21-5.59,1.13-8.21,2.23c-2.61,1.09-4.97,2.71-7.06,4.62c-1.1,1.01-2.13,2.12-3.07,3.28c-0.98,1.21-1.72,2.58-2.51,3.91
				c-0.37-0.54-0.6-1.2-0.92-1.77c-0.36-0.63-0.71-1.26-1.06-1.9c-0.69-1.25-1.33-2.53-2.03-3.78c-1.39-2.49-2.66-5.04-4.13-7.47
				c-0.01-0.01-0.02-0.03-0.02-0.04c5.59,0.19,11.2-0.12,16.79,0.14c1.33,0.06,2.69,0,4.02-0.01c1.49-0.01,2.97,0.05,4.46,0.05
				c1.38,0,2.75-0.03,4.13-0.01c1.32,0.02,2.54-0.4,3.75-0.9c2.42-0.99,4.58-3.71,4.84-6.35c0.29-2.94-0.61-5.73-2.88-7.7
				c-1.39-1.21-3.22-1.89-5.04-2.04c-0.91-0.08-1.89-0.08-2.77,0.21c-0.84,0.27-1.57,0.59-2.37,0.96
				c-0.06-5.76-0.06-11.52-0.07-17.27c0-0.78,0.07-8.29-0.16-8.29c-2.87,0.02-5.74-0.12-8.61-0.11c-5.67,0.03-11.35-0.33-17.02-0.28
				c-0.94,0.01-1.89-0.17-2.83,0.02c-0.43,0.09-0.84,0.24-1.26,0.32c-0.43,0.09-0.84,0.4-1.26,0.54c0.06-3.78-0.02-7.58-0.12-11.36
				c-3.77,4.29-7.64,8.46-11.51,12.67c-1.25,1.35-2.58,2.63-3.81,4c-0.62,0.7-1.31,1.34-1.93,2.03c-0.31,0.34-0.63,0.67-0.95,1
				c-0.21,0.22-0.87,0.7-0.89,0.98c-1.98-2.01-3.9-4.07-5.82-6.14c-1.92-2.08-4.05-4-5.9-6.15
				C32.1,102.76,30.77,101.48,29.53,100.14z"/>
			<path class="st2" d="M234.8,195.65l0.08,0.19c0.12,0.31-0.18,0.44-0.55,0.41c-13.93,0.11-24.97-0.01-36.68,0.02
				c-0.6,0.12-0.62-0.08-0.27-0.58c0.23-0.51,0.44-0.92,0.66-1.43c5.72-13.29,11.59-27.23,16.54-39c0.34-0.64,0.62-0.36,0.94,0.22
				C221.81,168.35,228.33,182.79,234.8,195.65 M238.51,196.2c-0.42-0.07-0.74,0.29-1.07-0.09c-0.23-0.27-0.02-0.68-0.04-0.93
				c0.06-12.84,0.33-26.42,0.19-39.26c0.06-1.01,0.78-1.05,1.31-0.54c5.44,5.53,11.62,12.25,17,17.95c0.04,0.04,0.09,0.09,0.13,0.13
				c0.27,0.3,0.37,0.1,0.36-0.18c0-0.07,0-0.14,0-0.21c-0.02-5.83-0.13-11.7,0.05-17.54c0.01-0.4,0.37-0.41,0.66-0.41
				c2.31,0.02,4.21,0.07,6.07,0.07c3.05,0,6.02-0.06,10.76,0.01c0.26,0.02,0.33,0.2,0.29,0.49c-0.06,12.28-0.12,26.83-0.3,40
				l-0.33,0.47C261.91,196.07,250.07,196.38,238.51,196.2z M217.06,186.7c-0.65,1.04-2.14,1.34-3.1,0.6
				c-1.04-0.74-1.34-2.14-0.6-3.17c0.73-1.04,2.14-1.27,3.17-0.53C217.57,184.26,217.79,185.66,217.06,186.7z M214.94,157.35
				c0.02-0.04,0.11-0.22,0.19-0.03c2.41,5.22,9.45,19.68,18.11,37.51c0.08,0.17-0.01,0.18-0.11,0.18c-2.63,0.01-31.76,0-34.39,0.01
				C199.8,192.54,213.39,160.91,214.94,157.35z M160.53,146.09c-0.22-0.5-0.85-1-1.49-1.34c-1.91,0.8-3.81,1.73-5.71,2.83
				c-1.42,0.79-2.86,1.89-4.21,2.76c-0.43,0.38-0.86,0.81-1.42,0.82c0.58-1.02,1.37-2.04,2.22-2.69c-1.6-1.56-2.91-3.27-4.15-4.75
				c-2.98,4.87-5,9.65-4.96,13.97c-0.01,0.59-0.11,1.62,0.18,1.91c0.35,0.22,1.51-0.16,1.72-0.38c0.15-0.16,0.15-0.3,0.3-0.45
				c0.29-0.21,1.08-0.3,1.5-0.37c0.58-0.14,1.02-0.15,1.44-0.3c1.15-0.37,2.31-1.26,3.39-2.08c1.14-0.81,2.29-1.69,3.44-2.58
				c1.14-0.88,2.21-1.9,3.35-2.63c1.57-1.02,3.19-1.9,4.76-2.49C160.6,147.52,160.88,146.8,160.53,146.09z M160.53,144.8
				c0.49,0.5,0.7,1.21,0.78,1.86c0.07,0.36,0.07,1.07,0.35,1.28c0.28,0.14,0.53-0.2,0.81-0.63c0.5-0.72,0.28-1.22,0.21-1.93
				c0-0.5-0.17-1.11-0.32-1.55c-0.14-0.35-0.4-0.92-0.53-1.25c-0.78-0.41-1.87,0.16-2.36,1.09
				C159.61,144.31,160.1,144.37,160.53,144.8z M172.42,157.73c-0.15-0.52-0.19-1.4-0.34-1.84c-0.23-0.95-1.02-2.2-1.45-3.13
				c-1.11-2.57-0.67-3.65-2.01-6.31c-0.14-0.21-0.76-0.91-1.09-1.5c-0.72-1.28-1.67-2.25-2.86-2.1c-0.35,0.06-1.06,0.22-1.2,0.51
				c0,0.14,0.14,0.58,0.22,0.79c0.28,0.92,0.14,1.85-0.06,2.85c-0.07,0.29-0.28,0.58-0.21,0.86c0.36,0.28,0.78,0.36,1.13,0.42
				c0.36,0.07,0.68,0.37,1.04,0.36c0.49,0,1.13-0.36,1.55,0.06c-0.2,0.72-1.13,0.01-1.41,0.51c-0.35,0.44,0.24,0.57,0.4,0.94
				c0.21,0.35,0.28,1.01,0.42,1.44c0.23,1.08,0.16,2.21,0.31,3.29c0.07,0.45,0.03,1.62,0.39,1.99c0.58,0.57,1.58,0.5,2.23,0.65
				c0.36,0.14,0.71,0.36,1,0.58c0.72,0.51,1.51,1.43,2.29,1.63C172.91,159.21,172.49,158.24,172.42,157.73z M204.17,168.77
				c-0.02-0.37,0.1-1.05-0.13-1.2c-0.22-0.14-0.5,0-0.57,0.16c-0.13,0.22,0.04,0.89,0.2,1.19c0.09,0.45,0.25,0.81,0.56,1.04
				C204.28,169.66,204.2,169.28,204.17,168.77z M164.23,123.16c-0.49-0.33-1.44,1.3-0.82,1.63
				C164.03,124.79,164.71,123.49,164.23,123.16z M178.19,114.26c0.49,0.39,1.27-1.2,0.45-1.32
				C178.31,113.27,177.85,113.99,178.19,114.26z M190.15,140.74c-0.13,0.35-0.46,1.17-0.73,1.45c0.01,0.28,0.16,0.31-0.04,0.51
				c-0.15,0.21-1.17,0.28-1.04-0.12c0.05-0.14,0.3-0.26-0.17-0.35c-0.48,0.29-1.04,0.57-1.6,0.72c-0.48,0.14-1.64,0.46-2.21,0.18
				c0.23-1.06,2.43-2.13,3.24-2.02c0.57,0,0.69,0.62,1.25,0.47c0.82-2.11,1.76-4.95,5.04-8.24c0.6-0.7,0.96-1.19,1.5-1.89
				c0.52-0.76,0.79-1.9,1.1-2.79c0.24-0.9,0.51-1.76,0.68-2.57c0.71-5.09,0.4-10.22-3.71-13.02c-2.24-1.57-3.49-1.76-5.37-1.48
				c-0.75,0.09-1.49,0.28-2.16,0.55c-0.67,0.26-1.47,0.48-2.08,0.89c-1.13,0.72-1.79,2.31-3,3.32c0.12-0.8,0.67-1.46,1.27-2.12
				c0.19-0.34,0.52-0.66,0.78-1.01c0.27-0.27,0.73-0.73,0.86-1c0.13-0.26-0.29-0.59-0.51-0.92c-0.56-0.65-0.9-1.11-1.39-1.7
				c-0.28-0.2-0.56-0.65-0.83-0.78c-0.54-0.25-1.48,0.08-1.96,0.21c-0.67,0.19-1.27,0.4-1.73,1.06c0.14,0.33,0.49,0.45,0.63,0.78
				c0.34,0.52-0.11,1.25,0.45,1.78c0.4-0.13,0.72-0.6,1.13-0.74c0.27-0.13,0.8-0.27,1.02-0.07c0.28,0.2,0.22,0.72,0.16,1.06
				c-0.06,0.33-0.11,0.85-0.31,1.12c-0.2,0.34-0.8,0.54-1.21,0.74c-0.47,0.27-0.94,0.48-1.07,1.08c0.36,0.6,1.19,1.12,1.13,1.93
				c0.01,0.33-0.1,1-0.37,1.34c-0.54,0.46-1.1-0.41-0.98-0.86c0.06-0.27,0.33-0.47,0.39-0.81c0.13-0.33-0.22-1-0.5-1.33
				c-0.21-0.33-0.63-0.73-0.97-0.93c-0.48-0.27-1.09-0.32-1.58-0.65c-0.27-0.06-0.48-0.25-0.75-0.39c-1.44-1.03-2.54-2.15-2.97-3.4
				c-0.57-1.38-0.52-3.08-0.06-4.58c-0.21-0.19-0.41-0.33-0.61-0.45c-1.54,1.31-4.11,0.24-5.78,1.41c-0.33,0.26-0.67,0.59-0.87,1.05
				c-0.27,0.46-0.06,0.85-0.33,1.18c-0.28,0.33-0.95,0.2-1.29,0.2c-1.08,0.07-1.62,0.28-2.7,0.81c-0.55,0.27-1.09,0.54-1.43,0.8
				c-0.26,0.2-0.67,0.6-0.88,0.86c-0.07,0.21-0.41,1.2-0.27,1.32c0.34,0.4,1.02-0.4,1.28-0.67c0.48-0.4,1.22-1.13,1.5-0.27
				c-0.14,0.45-0.61,0.66-0.88,1.05c-0.82,1.2-1.23,2.74-1.3,3.93c-0.08,1.21,0.33,2.48,1.22,3.41c0.76-0.62,1.24-1.55,1.85-2.23
				c1.22-1.28,2.65-2.23,4.08-2.63c0.68-0.21,1.43-0.28,2.18-0.49c-0.76-1.12-1.59-2.64-3.15-3.28c-0.61-0.27-1.42-0.45-2.1-0.45
				c-0.4,0-0.81,0.27-1.22-0.12c1.02-0.67,2.65-0.81,3.93-0.37c0.41,0.13,0.88,0.46,1.3,0.71c1.5,1.11,1.91,2.1,2.54,3.36
				c0.77,1.4,1.39,2.65,1.81,3.98c0.22,0.75,0.51,1.49,0.3,2.23c-1.16,0.07-1.25-0.93-1.46-1.61c-0.28-1-0.77-2.13-1.25-3
				c-0.34-0.07-0.62-0.06-0.96,0c-0.21,0-0.33,0.08-0.55,0.08c-0.48,0.13-1.08,0.41-1.76,0.68c-0.48,0.21-1.5,0.48-1.7,0.95
				c-0.21,0.34,0.07,0.8,0.14,1.07c0.13,0.41,0.27,0.74,0.41,1.07c0.55,0.08,1.03-0.27,1.58,0.2c0.48,0.4,0.15,1.28,0.62,1.61
				c0.22,0.13,0.48,0.06,0.76,0.2c0.34,0.13,0.69,0.54,1.04,0.6c0.34,0.06,0.62-0.21,0.96,0c0.62-0.55,1.3-0.77,1.91-1.04
				c0.41-0.13,0.89-0.48,1.31-0.27c-0.4,0.6-1.16,0.81-1.77,1.17c-1.91,1.03-3.91,1.86-5.55,3.64c0.07,0.14,0.14,0.27,0.35,0.41
				c0.82-0.27,1.64-0.89,2.41-1.18c0.27-0.06,0.69-0.21,0.89,0c-0.27,0.47-0.82,0.69-1.3,0.9c-0.42,0.27-0.9,0.49-1.38,0.77
				c-1.24,0.76-2.82,1.39-3.94,2.85c-1.45,1.94-2.22,4.24-1.66,5.98c0.21,0.63,0.91,1.39,1.74,1.73c0.35,0.21,1.12,0.28,0.98,0.63
				c-0.28,0.63-1.89-0.41-2.31-0.69c-0.9-0.76-1.6-1.66-1.74-2.7c-0.13-0.71,0.08-1.68,0.36-2.58c0.35-0.9,0.84-1.88,1.39-2.64
				c0.83-0.98,1.94-1.39,2.84-2.09c0.11-0.38-0.67-1.21-1.11-1.34c-0.1-0.03-0.02,0.49-0.2,0.79c-0.76,1.04-1.39,1-2.29,1.36
				c-0.42,0.17-1.03,0.33-1.44,0.2c0.55-0.49,1.47-1,1.39-1.81c-0.42,0.23-1.01,0.32-1.51,0.39c-0.37,0.06-0.77-0.12-1.13-0.29
				c0.49-0.48,1.66-0.36,2.15-1.05c0.2-0.34,0.27-0.82,0.2-1.16c-0.48,0.34-1.06,0.52-1.61,0.6c-0.62,0-1.28-0.29-1.83-0.5
				c0.48-0.49,1.52-0.28,2.13-0.64c0.55-0.34,1.04-1.23,0.9-1.77c-0.43-0.04-0.83,0.44-1.31,0.78c-1.1,0.9-2.25,1.12-3.62,1.13
				c-0.2,0.01-0.71,0.02-1.19-0.29c0.07-0.21,0.65-0.19,0.72-0.19c1.25,0,2.99-1.01,3.89-1.69c0.28-0.19,0.82-0.48,0.9-0.82
				c0.06-0.2-0.21-0.47-0.34-0.81c-0.49-0.94-0.61-2.02-1.5-2.73c-0.21,1.41-1.11,3.29-2.48,4.53c-0.49,0.48-0.83,0.95-1.25,1.37
				c-1.24,1.02-3.15-0.25-3.62-1.54c-0.06-0.33,0.01-0.87-0.11-1.28c-0.13-0.61-0.39-1.48-1.15-1.41c-1.07,2.44-1.66,4.95-2.04,7.35
				c-0.47,2.48-0.58,4.82-0.34,7.18c0.41,4.61,1.32,9.42,5.2,13.39c1.42-0.94,2.63-1.96,4.05-2.4c1.4-0.51,2.82-0.87,4.23-1.38
				c0.14-2.22,1.95-2.84,3.42-2.49c0.3,0.13,0.41,0.47,0.68,0.97c0.77-0.29,1.68-0.81,2.45-0.74c1.27,0.07,2.81,1.69,3.46,2.61
				c0.79,1.14,1.16,2.31,1.88,3.37c0,0.08,0,0.08,0,0.14c0.44,0.87,0.51,1.96,0.95,2.83c0.22,0.42,0.59,0.78,0.8,1.15
				c0.44,0.79,0.95,2.48,1.32,3.42c0.15,0.36,0.37,0.87,0.6,1.38c0.09,0.21,0.01,0.81,0.13,1.1c0.08,0.22,0.36,0.15,0.45,0.22
				c1.05,1.04,5.43,0.54,6.65,0.28c4.2-0.76,8.14-5.31,10.62-8.65c1.29-1.74,2.49-4.44,3.68-6.24c0.26-0.36,0.54-0.57,0.6-0.79
				c0.06-0.22,0.05-0.57,0.03-0.85c0.09-1.34,0.8-2.76,1.78-4.25c0.33-0.49,0.72-1.19,1.29-0.92c0.02,0.34-0.25,0.48-0.39,0.7
				c-1.38,1.9-2.14,3.67-2.01,5.37c0.04,0.86,0.5,1.78,0.81,2.56c0.25,0.79,0.58,1.64,0.82,2.43c0.24,0.72,0.59,2.62,0.57,3.55
				c0.03,0.72-0.05,2.17-0.58,2.75c-0.52,0.75-1.18,1.23-1.62,2.2c-0.73,1.47-0.81,3.09-0.11,4.27c0.23,0.29,0.72,0.9,0.96,1.26
				c-0.21,0.31-0.58,0.16-0.94-0.14c-0.51-0.29-1.09-1.27-1.33-1.7c-0.32-0.81-0.25-2.66,0.28-3.69c0.2-0.36,0.47-0.87,0.73-1.17
				c0.74-1.05,1.31-1.39,1.14-1.4c-0.34-0.03-1.67,0.74-2.39,1.19c-3.69,2.8-1.56,6.55-2.99,9.8c-0.36,0.83-1.07,1.99-1.57,2.73
				c-0.18,0.26-0.45,0.65-0.09,0.72c0.26,0.26,0.47,0.59,0.69,0.44c0.14-0.08,0.89-0.93,0.96-1.23c0.84-1.17,1.19-3.01,1.69-4.1
				c0.27-0.53,0.6-1.34,1.02-1.63c0.59,0.51,0.5,1.2,0.31,1.79c-0.57,2.16-1.4,4.34-0.82,6.12c0.57,1.73,2.65,3.98,4.09,5.49
				c0.46,0.45,1.12,1.43,1.87,1.81c0.89,0.37,2.08-0.21,2.49-1.2c0.53-1.08-0.24-4.06-0.5-5.19c-0.27-1.35-0.38-1.17-0.43-2.28
				c-0.7,0.46-1.14,0.69-1.92,0.85c-2.61,0.02-2.81-2.04-2.9-4.11c0.04-0.75-0.31-1.4,0.1-2c0.2-0.39,0.34-0.53,0.63-0.47
				c0.38,0.45,0.04,0.7,0.14,1.29c0.02,0.6-0.02,1.34,0.08,1.86c0.09,0.37,0.86,2.15,1.38,2.38c0.51,0.21,1.26-0.2,1.68-0.51
				c0.21-0.08,0.44-0.14,0.57-0.31c0.26-0.44,0.5-2.22,0.62-2.81c0.04-0.67-0.04-1.56-0.07-2.15c-0.13-1.33-0.56-2.64-0.62-3.89
				c-0.19-2.55-0.7-6.2-0.4-8.73c0.16-1.3,0.44-2.66,0.67-3.96c0.29-1.36,0.51-2.64,0.86-3.99c0.73-2.34,1.59-4.73,2.24-6.97
				c0.05-0.28,0.09-0.77,0.44-0.9c0.61,0.96,0.26,2.16,0.04,3.2c-0.8,3.38-1.83,6.8-2.51,10.17c-0.23,1.08-0.22,3.26-0.3,4.34
				c-0.09,1.16-0.18,2.32-0.19,3.34c0.06,1.09,0.25,2.19,0.37,3.29c0.11,0.81,0.89,3.28,1.07,4.01c0.09,0.3,0.04,0.67,0.25,0.74
				c0.29-1.34-0.3-4.03-0.51-5.28c-0.02-0.36-0.1-0.73-0.13-1.17c-0.09-0.45-0.13-0.86-0.08-1.16c0.05-0.44,0.28-0.9,0.4-1.47
				c0.06-0.15,0.03-0.65-0.04-0.87c-0.09-0.36-0.38-0.58-0.25-0.88c0.13-0.28,0.48-0.29,0.62-0.43c1.36-3.09,3.78-10.77,5.53-13.97
				c0.7-1.27,1.53-2.53,1.87-3.93c-0.16-0.28-0.25-0.62-0.33-0.83c-0.08-1.24,0.32-2.7-0.04-4c-0.27-0.97-1.01-1.78-1.94-2.53
				c-0.22-0.14-0.65-0.47-1.01-0.61c-0.28-0.13-0.62-0.06-0.82,0.01c-0.81,0.28-1.46,1.03-2.11,1.72c0.53,0.96,0.59,1.99,0.64,3.09
				c0.02,0.4,0.05,0.82,0.07,1.23c0.02,0.43,0.13,0.98-0.21,1.26c-1.26-0.2-1.1-1.25-1-2.08c-0.03-0.48,0.07-1.03-0.01-1.51
				c-0.04-0.69-0.36-1.58-1.22-1.99c-0.57-0.26-1.45-0.04-2,0.15c-0.67,0.22-1.28,0.57-1.82,0.99
				C195.49,132.49,192.45,136.31,190.15,140.74z M192.78,168.62c-0.04-0.02-0.08-0.01-0.09,0.07c-0.94,0.81-1.49,1.03-1.85,0.49
				c-0.45-0.37-1.05-1.24-1.36-1.76c0.49-1.13,0.78-1.53,1.06-2.11c0.34-0.6,0.56-1.39,0.67-1.76c0.49-1.39,0.66-3.41,0.82-4.84
				c-5.03,5.69-10.13,11.79-14.93,17.65c-0.41,0.5-0.76,0.67-1.08,0.21c-0.63-0.89-12.61-14-15.8-17.39
				c-0.11-0.11-0.43-0.44-0.42,0.02c-0.06,3.83-0.41,31.75-0.46,35.62c-0.01,0.16,0.19,0.21,0.21,0.25
				c1.87-0.05,31.39-0.07,33.16-0.06C192.91,185.94,192.78,177.33,192.78,168.62z M153.71,154.4l0,0.07l-0.05,2.27l-0.58,44.54
				c41.83-0.17,83.86,0.03,125.69-0.14c0.1,0,0.19,0,0.29,0c0.19,0.01,0.17-0.05,0.17-0.33c0-0.09,0-0.16,0-0.25
				c-0.06-16.25,0.23-34.43,0.25-50.58c-0.94,0-25.04-0.03-27.32-0.04c-0.01,0-0.02-0.01-0.04-0.01c-0.04,0.01-0.06,0.01-0.06,0.06
				c-0.19,3.67-0.01,6-0.21,9.69c0.03,0.11,0.01,0.55,0.11,0.99c0.25,1.09,0.74,2.33-0.65,0.81l-0.48-0.52
				c-5.67-6.35-11.46-12.57-17.47-18.69c-0.43,10.55,0.16,24.25-0.08,35.54c0,0.57,0.52,0.94,0.52,1.32
				c-0.09,0.18-0.19,0.23-0.19,0.37c-0.07,0.07,0.17,0.29,0.09,0.48c-0.24,0.57-0.42,0.56-0.62,0.04
				c-5.68-12.11-11.74-24.32-17.7-36.99c-3.36,7.47-6.73,14.91-10.13,22.46c0.06,0.57,0.13,1.15,0.08,1.69
				c-0.07,0.22,0.09,0.38,0.09,0.59c0.12,0.68,0.3,3.45,0.11,4.21c-0.24,0.84-0.09,1.56-0.2,2.39c-0.16,1.37-0.85,2.85-1.9,3.69
				c-1.18,1.06-1.8,1.79-2.98,0.85c-0.5-0.4-0.99,0.21-1.64-0.55c-0.6-0.38-0.76-0.83-1.22-1.47c-0.49-0.73-0.81-1.25-1.26-1.85
				c-0.49-0.57-1.59-1.55-2.24-2.66c0.01,7.87,0.03,15.49-0.13,23.4c-0.01,0.39-0.27,0.52-0.47,0.52c-6.17,0.1-26.29,0.1-32.89,0.06
				c-0.74,0-1.71,0.08-2.08-0.03c-0.16-0.06-0.46,0.11-0.61-0.03c-0.06-0.04,0.01-0.3,0.04-0.64c0.03-0.35,0.01-0.8,0.01-1.1
				c0.14-11.6,0.53-24.64,0.42-37.51l0-0.8c0.05-0.72,0.46-0.56,0.92,0.18c2.7,2.97,5.37,6.02,8.11,8.95
				c2.65,2.85,5.68,6.09,8.78,9.52c0.21,0.25,0.32,0.26,0.59-0.07c4.37-5.32,8.67-10.42,13.2-15.59l0.49-0.57l0.5-0.56l0.49-0.56
				l1.39-1.56l0.07-0.12c0.74-1.25,1.5-1.83,2.4-2.35c0.42-0.22,0.91-0.44,1.33-0.59c0.35-0.07,1.22,0.13,1.49-0.16
				c0.06-0.08,0.04-0.73,0.02-1.01c-0.16-2.1-0.84-4.92-1.41-6.84c-0.07-0.14-0.11-0.92-0.31-0.78c-0.28,0.21-0.97,3.05-1.1,3.28
				c-3.21,5.52-6.37,11.14-13.16,12.42c-2.54,0.47-5.73,0.61-7.75-0.61c0.52,1.95-0.83,2.18-3.02,1.13
				c-0.14-0.14-1.54-1.46-1.75-1.46c-0.53-0.27-1.69-0.92-2.14-0.91c-0.92-0.49-1.52-0.28-1.94-2.08c-0.14-0.67-0.23-1.32-0.23-2.19
				c-0.08-0.72-0.27-1.53-0.49-2.24c-0.07-0.51-0.19-1.78-0.76-2.14c-0.21-0.15-0.42-0.03-0.7-0.17c-0.18-0.06-0.59-0.25-0.63-0.33
				c-0.57,0.44-1.13,0.77-1.7,0.04c-0.56,0.3-0.99,0.28-1.55,0.71c-0.57,0.37-0.99,0.74-1.49,1.1c-1.46,1-2.85,2.38-4.27,3.63
				c-0.01,0.01-0.03,0.02-0.04,0.03L153.71,154.4z M156.81,102.72c0.12-0.08,0.17-0.05,0.31-0.05c0.8,0.06,2.27,0.15,2.88-0.58
				c-0.05,0.52,0,0.59,0.24,0.87c0.41-0.59,0.47-1.3,0.67-2c0.21-0.65,0.47-1.35,0.74-2c0.46-1.4,0.8-2.81,1.59-4.09
				c0.39-0.82,1.19-1.26,1.72-1.08c0.53,0.12,0.8,0.75,1.01,1.06c0.41,0.7,0.81,1.4,1.08,2.09c0.2,0.31,0.27,0.69,0.47,1.01
				c0.41,0.65,1.15,1.47,1.75,1.97c0.75,0.57,1.68,0.82,2.36,1.33c0.47,0.4,0.88,0.91,0.89,1.35c0.07,0.57-0.59,0.91-1.06,1.1
				c-0.87,0.34-2.01,0.09-3.08,0.16c-0.48,0-1.01,0.07-1.48,0.2c-0.47,0.07-1.07,0.2-1.47,0.4c-0.54,0.26-0.74,0.85-1.34,1.18
				c-1.15-1.15-2.96-2.37-4.37-1.76c0.21,0.38,0.95,0.44,1.61,0.76c0.41,0.18,1.55,0.82,1.69,1.14c0.27,0.45-0.33,1.24-0.88,1.24
				c-0.53-0.39-0.87-0.84-1.41-1.16c-0.74-0.38-1.61-0.44-2.28-0.82c-0.07,0.97,1.34,1.29,2.28,1.92c0.2,0.59,0.28,1.36-0.2,1.97
				c-0.21,0.19-0.54,0.33-0.75,0.53c-0.27,0.12-0.55,0.33-0.74,0.46c-0.33,0.08-0.74,0.15-1.02,0.01c-1.08-0.26-0.33-1.24-0.8-1.76
				c-0.33-0.39-1.08-0.9-1.55-0.71c-0.14,0.79,1.28,1.24,1.14,2.02c-0.2,0.72-0.95,0.66-1.29,0.93c-1.08,0.74-2.31,2.27-3.34,3.26
				c0.27,0.14,0.41-0.19,0.55-0.26c0.89-0.93,1.9-1.53,2.78-2.19c0.41-0.27,0.75-0.6,1.23-0.61c0.06,0.65-0.34,1.39-0.56,2.05
				c-0.48,1.39-0.96,2.85-1.44,4.25c-0.28,0.81-0.49,1.62-0.83,2.21c-0.56,0.88-1.58,1.91-2.27,1.64c-0.41-0.2-0.61-0.87-0.74-1.28
				c-0.27-0.99-0.46-1.66-0.79-2.67c-0.19-0.4-0.32-1.06-0.59-1.32c-0.27-0.26-0.88-0.34-1.35-0.53c-0.41-0.2-0.88-0.39-1.22-0.52
				c-0.95-0.33-2.03-0.64-2.76-1.23c-0.67-0.46-0.66-1.11-1.12-1.77c0.14-0.4,0.15-0.86,0.51-1.2c0.27-0.26,1.08-0.21,1.48-0.27
				c0.61-0.01,1.16-0.14,1.63-0.14c0.95-0.08,2.1-0.16,2.97-0.36c0.32-0.08,1.04-0.33,1.36-0.53c0.18-0.11,0.34-0.25,0.48-0.4
				c0.41,0,0.78-0.82,0.24-1.21c-0.14-0.13-0.33-0.27-0.54-0.39c-0.13-0.13-0.59-1.17-0.52-1.36c0.14-0.21,0.74-0.07,1.02-0.07
				c0.33-0.07,0.88-0.15,1.03-0.41c-0.01-0.02-0.03-0.04-0.04-0.06c0.26-0.19,0.55-0.36,0.83-0.52c0.2-0.04,0.41-0.11,0.56-0.22
				c-0.03,0.3,0.05,0.61,0.32,0.84c0.34-0.4,0.07-0.69,0.29-1.09c0.2-0.26,0.63-0.54,0.89-0.61c0.87-0.39,2.17,0.51,3.05,0.38
				c-0.2-0.59-1.22-0.79-1.62-1.04C156.93,102.76,156.87,102.74,156.81,102.72z M175.09,111.25c0.02-0.18,0.2-0.41,0.33-0.51
				c1.18-2.13,2.93-2.1,4.52-2.62c-0.22-0.45-0.69-0.78-1.1-1.1c-1.23-0.77-3.4-1.6-4.41-1.52c-0.2,0-0.4,0.06-0.6,0.14
				c-0.47,0.06-0.86,0.19-1.27,0.4c0.41,0.25,0.01,0.58-0.05,0.91c-0.2,0.46-0.12,1.04-0.11,1.64c0.01,1.18,0.16,1.9,0.91,2.82
				c0.28,0.4,0.49,0.85,1.04,1.05c0.34-0.2,0.26-0.73,0.66-1.06C175.04,111.33,175.06,111.29,175.09,111.25z M184.56,105.87
				c-0.14,0.08-0.07,0.35-0.14,0.46c-0.19,0.33-0.39,0.72-0.64,1.17c-0.33,0.46-0.93,0.93-1.12,1.25c-0.31,0.85,0.9,0.64,1.23,0.44
				c1.47-0.66,2.49-2.63,3.45-4.07c0.17,1.36-1.05,3.07-2.1,4.06c-0.45,0.46-0.99,0.67-1.25,1.13c0.69,0.46,1.36,0.06,1.96-0.15
				c0.94-0.34,1.52-0.93,2.38-1.65c0.46-0.41,0.91-1,1.31-1.19c-0.46,1.16-1.71,2.49-2.7,3.24c1.95-0.18,4.44-0.19,6.3,0.96
				c0.28,0.18,0.39,0.12,0.41-0.01c-0.07-1.78,0.35-3.54,1.01-5.5c0.24-0.66,1.07-1.93,0.63-1.76c-0.38,0.15-1.54,1.17-2.28,1.52
				c-0.84,0.4-1.34,0.69-2.23,0.92c-0.39,0.15-0.8,0.15-1.21-0.18c0.17-0.59,0.93-0.72,1.39-0.85c0.48-0.24,1.19-0.5,1.72-0.82
				c0.53-0.27,1.42-0.86,1.81-1.19c0.35-0.29,0.87-0.69,1.23-1.07c0.36-0.38,0.5-0.78,0.94-1.07c0.08-0.05,0.7-0.41,0.99-0.15
				c0.21,0.19-0.29,0.9-0.48,1.35c-0.68,1.37-1.28,3.24-1.69,4.54c-0.52,1.97-0.59,3.47-0.54,5.37c1.61,1.17,2.89,3.69,3.78,6.26
				c1.03-3.74,2.04-9.21,1.96-12.52c-0.06-2.4,0.25-5.75,0.34-7.88c0.08-1.67-1.46-2.35-2.13-2.61c-0.35-0.11-1.68,0.62-2.06,0.95
				c-1.83,1.43-3.5,2.9-5.62,4.76c-0.39,0.39-1.18,1.16-1.56,1.55c-0.33,0.39-1,1.12-1.39,1.46c-0.09,0.04-0.43-0.11-0.5-0.33
				c-0.41,0.17-0.69,0.29-0.92,0.52C186.24,105.42,185.24,105.55,184.56,105.87z M184.54,105.61c0.04-0.02,0.07-0.03,0.11-0.05
				c0.57-1.09,1.87-2,2.81-1.83c0.16-0.03,0.33-0.03,0.51,0c0.2-0.5,0.58-0.92,0.98-1.32c2.19-2.39,4.8-4.75,7.14-6.44
				c0.39-0.26,0.83-0.57,1.42-0.84c0.45-0.26,2.02-1.05,2.5-0.73c0.76,0.44,1.94,1.26,2.04,2.02c0.16,3.29-0.13,6.22-0.17,9.17
				c-0.05,3.92-0.05,7.82-1.78,12.1c-0.49,0.9-0.99,2.36-1.14,3.53c0.08,2.58-0.14,4.8-0.81,7.33c-0.17,0.69,1.25-0.57,1.57-0.8
				c1.27-0.98,3.56-1.57,5.11-0.69c1.45-2.6,3.83-3.09,6.22-1.08c1.02,0.81,1.84,1.84,2.11,2.73c0.35,1.04,0.14,2.34-0.06,3.59
				c-0.04,0.56-0.05,1.46-0.74,1.47c-0.25,1.68-0.96,3.81-1.88,5.78c-1.95,4.45-3.64,8.52-5.07,13.18
				c-0.31,0.87-0.62,2.05-0.65,2.79c-0.05,0.51,0.2,1.09,0.29,1.6c0.31,1.76,0.64,3.56,0.38,5.4c-0.05,0.13-0.05,0.29-0.09,0.43
				c0,0.01,0,0.02-0.01,0.03c0,0.02-0.01,0.05,0.01-0.01c0-0.01,0.01-0.02,0.01-0.02c3.33-7.42,6.64-14.91,9.98-22.31
				c0.06-0.13,0.33-0.48,0.47-0.26c0.08,0.11,0.05,0.34,0.1,0.59c0.04,0.18,0.11,0.26,0.16,0.42c0.05,0.22,0.07,0.5,0.09,0.53
				c5.4,11.46,10.52,22.17,15.95,33.61l0.14,0.3l0.01-0.7c0.08-11.43-0.41-23.37-0.02-34.83c0-0.06,0-0.13,0.01-0.19
				c0.05-0.4,0.33-0.29,0.5-0.11c0.05,0.06,0.1,0.11,0.16,0.17c6,6.21,11.77,13.43,18.03,19.28l0-0.09c-0.06-2.99-0.02-6.92,0-9.89
				c0.01-0.41,0.11-0.43,0.41-0.43c9.35-0.02,19.82,0.04,28.72-0.09c0.2,0,0.31,0.11,0.31,0.39c-0.12,7.32-0.11,14.89-0.11,22.78
				c0,2.89-0.05,5.82-0.04,8.81c0.01,6.9-0.01,14-0.09,21.39c-42.72-0.31-85.08,0.26-127.46,0.1c-0.42,0.02-0.7-0.1-0.7-0.57
				l0.62-46.25l0-0.17l-0.07-0.04c-0.02-0.01-0.11,0.09-0.14,0.11c-1.72,1.33-3.59,2.66-5.33,3.55c-0.93,0.45-1.94,0.69-3.09,0.99
				c-0.43,0.14-1.09,0.52-1.22-0.07c-0.65,0.09-1.16,0.46-1.73,0.31c-0.99-0.3-1.47-1.54-1.51-2.12c0.01-0.51,0.16-1.24,0.25-1.83
				c0.25-1.83,0.51-3.71,1.27-5.67c1.04-2.6,2.72-5.26,4.17-7.69c-0.95-1.83-1.26-3.74-1.51-5.63c-0.31-1.88-0.35-3.76-0.31-5.77
				c-0.01-2.96,0.11-5.75,1.69-8.97c0.28-0.54,0.57-1.09,0.85-1.63c0.22-0.46,0.63-0.95,0.85-1.49c0.21-0.53,0.29-1.6,0.23-2.07
				c0-0.2-0.26-0.46-0.12-0.74c0.08-0.26,0.34-0.2,0.48-0.47c-1.28-1.12-3.11-0.91-4.31-2.03c-0.73-0.71-1.12-1.76-1.1-2.62
				c0.02-0.79,0.8-2.44,1.88-2.64c0.61-0.07,1.22-0.01,1.83-0.01c1.22-0.08,2.24-0.22,3.45-0.43c0.35-0.04,1.23-0.19,1.73-0.14
				c0.1,0.01,0.21,0.02,0.31,0.05c-0.01-0.11,0.07-0.21,0.08-0.33c-0.4-0.59-1.01-0.92-1.27-1.43c-0.19-0.33-0.33-0.78-0.45-1.11
				c-0.26-0.78-0.59-1.42-0.38-2.27c0.46,0.25,0.66,0.78,1.13,1.16c0.4,0.33,1.1,0.4,1.63,0.46l0.75-0.29
				c-0.48-0.06-1.21-0.46-1.63-0.76c-1.45-1.1-1.78-2.52-1.88-3.93c-0.07-0.46-0.2-0.97,0.08-1.36c0.39,0.19,0.45,0.64,0.58,1.09
				c0.39,1.03,0.97,2.45,2.11,3.35c0.52,0.37,1.49,0.8,2.22,1.06l0-0.01c0.07-0.13,0.12-0.21,0.19-0.4
				c-0.54-0.13-0.86-0.34-1.33-0.66c-0.46-0.39-0.79-1.16-1.06-1.74c-0.52-1.1-0.78-2.38-0.9-3.59c-0.06-0.57-0.18-1.41,0.42-1.79
				c0.2,0.25,0.12,0.57,0.19,0.89c0.12,0.82,0.38,1.66,0.64,2.56c0.39,1.21,0.85,2.43,2.11,3.27c0.27,0.12,0.6,0.31,0.94,0.39
				c0.37-0.16,0.74-0.27,1.15-0.24c0.08-0.06-1.55-0.62-1.92-1.98c0.4-0.06,0.77,0.4,1.1,0.53c0.88,0.57,2.36,0.55,3.29,0.62
				c0.36,0.05,0.77,0,1.1,0.04l0-0.01c0.41-1.86,0.87-4.02,1.54-6c0.27-0.7,0.52-1.46,0.98-2.04c0.59-0.89,1.78-1.53,2.64-1.35
				c0.93,0.19,1.8,1.06,2.2,1.69c0.67,1.13,0.49,2.65,1.5,3.79c0.61,0.71,1.69,1.34,2.63,2.04c0.68,0.51,1.35,1.15,1.56,1.72
				c-0.05,0.46,0.05,0.96-0.19,1.43c-0.43,0.83-0.7,0.83-1.11,1.52c-0.16,0.27-0.34,0.52-0.53,0.76c0.37,0.38,0.61,0.26,1.02,0.13
				c0.53-0.15,1.04-0.41,1.52-0.93c0.53-0.72,0.45-1.49,0.78-2.01c0.2,0.32,0.15,0.58,0.15,0.84c-0.06,0.52-0.39,1.11,0.29,1.48
				c0.21,0.07,0.54,0,0.82,0.06c0.74,0.13,1.75,0.51,2.51,0.96c0.14,0,0.27,0.19,0.33,0.13c0.69,0.39,1.17,0.77,1.65,1.22
				c0.2,0.2,0.49,0.52,0.69,0.59c0.21,0.06,1.28-0.2,1.47-0.34c0.43-0.3,0.73-1,1.03-1.56c-0.02,0.01-0.04,0.03-0.06,0.04
				c-0.5,0.14-1.69-0.65-2.14-1.13c-1.04-0.81-2.07-1.73-3.33-2.4c-0.68-0.3-1.8-0.45-2.67-0.47c-0.92-0.02-1.59,0.12-1.58-0.5
				c-0.03-0.03-0.05-0.06-0.04-0.09c0.29-0.35,1.24-0.48,1.68-0.48c1.24-0.01,1.88-0.15,3.28,0.46c1.4,0.53,3.56,2.43,4.55,3.44
				c0.16,0.19,0.43,0.44,0.48,0.72c0.17-0.53,0.26-1.12,0.58-1.62C184.67,104.34,184.63,104.98,184.54,105.61z M272.86,156.29
				c-0.06,1.85-0.36,36.91-0.42,38.69c-1.77,0.01-31.83,0.01-33.67,0.02c-0.19,0.01-0.23-0.06-0.24-0.18
				c0.04-3.58,0.06-34.02,0.18-37.81c2.87,2.84,18.39,19.35,18.25,19.16c0.24,0.26,0.63,0.61,0.62,0.01c0,0-0.05-18.14,0.02-19.85
				C259.16,156.33,271.23,156.22,272.86,156.29z"/>
		</g>
	</g>
</g>
</svg>
